<?xml version="1.0" encoding="UTF-8" standalone="no"?><svg xmlns="http://www.w3.org/2000/svg" xmlns:xlink="http://www.w3.org/1999/xlink" contentScriptType="application/ecmascript" contentStyleType="text/css" height="180px" preserveAspectRatio="none" style="width:622px;height:180px;" version="1.1" viewBox="0 0 622 180" width="622px" zoomAndPan="magnify"><defs><filter height="300%" id="f1d7sqp80k2l0c" width="300%" x="-1" y="-1"><feGaussianBlur result="blurOut" stdDeviation="2.0"/><feColorMatrix in="blurOut" result="blurOut2" type="matrix" values="0 0 0 0 0 0 0 0 0 0 0 0 0 0 0 0 0 0 .4 0"/><feOffset dx="4.0" dy="4.0" in="blurOut2" result="blurOut3"/><feBlend in="SourceGraphic" in2="blurOut3" mode="normal"/></filter></defs><g><rect fill="#FEFECE" filter="url(#f1d7sqp80k2l0c)" height="36.4883" rx="12.5" ry="12.5" style="stroke: #A80036; stroke-width: 1.5;" width="76" x="10" y="76.4883"/><text fill="#000000" font-family="sans-serif" font-size="14" lengthAdjust="spacingAndGlyphs" textLength="56" x="20" y="100.0234">文章结构</text><rect fill="#FEFECE" filter="url(#f1d7sqp80k2l0c)" height="36.4883" rx="12.5" ry="12.5" style="stroke: #A80036; stroke-width: 1.5;" width="132" x="136" y="76.4883"/><text fill="#000000" font-family="sans-serif" font-size="14" lengthAdjust="spacingAndGlyphs" textLength="112" x="146" y="100.0234">一篇文章的文件夹</text><rect fill="#FEFECE" filter="url(#f1d7sqp80k2l0c)" height="36.4883" rx="12.5" ry="12.5" style="stroke: #A80036; stroke-width: 1.5;" width="228" x="318" y="20"/><text fill="#000000" font-family="sans-serif" font-size="14" lengthAdjust="spacingAndGlyphs" textLength="208" x="328" y="43.5352">index.md（文章的markdown）</text><path d="M268,94.7324 L278,94.7324 C293,94.7324 293,38.2441 308,38.2441 L318,38.2441 " fill="none" style="stroke: #A80036; stroke-width: 1.0;"/><rect fill="#FEFECE" filter="url(#f1d7sqp80k2l0c)" height="36.4883" rx="12.5" ry="12.5" style="stroke: #A80036; stroke-width: 1.5;" width="254" x="318" y="76.4883"/><text fill="#000000" font-family="sans-serif" font-size="14" lengthAdjust="spacingAndGlyphs" textLength="234" x="328" y="100.0234">logo/hugo.png（文章的logo照片）</text><path d="M268,94.7324 L278,94.7324 C293,94.7324 293,94.7324 308,94.7324 L318,94.7324 " fill="none" style="stroke: #A80036; stroke-width: 1.0;"/><rect fill="#FEFECE" filter="url(#f1d7sqp80k2l0c)" height="36.4883" rx="12.5" ry="12.5" style="stroke: #A80036; stroke-width: 1.5;" width="293" x="318" y="132.9766"/><text fill="#000000" font-family="sans-serif" font-size="14" lengthAdjust="spacingAndGlyphs" textLength="273" x="328" y="156.5117">images文件夹（存放文章内使用到的照片）</text><path d="M268,94.7324 L278,94.7324 C293,94.7324 293,151.2207 308,151.2207 L318,151.2207 " fill="none" style="stroke: #A80036; stroke-width: 1.0;"/><path d="M86,94.7324 L96,94.7324 C111,94.7324 111,94.7324 126,94.7324 L136,94.7324 " fill="none" style="stroke: #A80036; stroke-width: 1.0;"/><!--
@startmindmap

* 文章结构
** 一篇文章的文件夹
*** index.md（文章的markdown）
*** logo/hugo.png（文章的logo照片）
*** images文件夹（存放文章内使用到的照片）

@endmindmap

PlantUML version 1.2019.09(Tue Aug 27 00:19:51 CST 2019)
(GPL source distribution)
Java Runtime: Java(TM) SE Runtime Environment
JVM: Java HotSpot(TM) 64-Bit Server VM
Java Version: 1.8.0_144-b01
Operating System: Mac OS X
OS Version: 10.15.1
Default Encoding: UTF-8
Language: zh
Country: CN
--></g></svg>