<?xml version="1.0" encoding="UTF-8" standalone="no"?><svg xmlns="http://www.w3.org/2000/svg" xmlns:xlink="http://www.w3.org/1999/xlink" contentScriptType="application/ecmascript" contentStyleType="text/css" height="123px" preserveAspectRatio="none" style="width:742px;height:123px;" version="1.1" viewBox="0 0 742 123" width="742px" zoomAndPan="magnify"><defs><filter height="300%" id="f12psvmjjecrws" width="300%" x="-1" y="-1"><feGaussianBlur result="blurOut" stdDeviation="2.0"/><feColorMatrix in="blurOut" result="blurOut2" type="matrix" values="0 0 0 0 0 0 0 0 0 0 0 0 0 0 0 0 0 0 .4 0"/><feOffset dx="4.0" dy="4.0" in="blurOut2" result="blurOut3"/><feBlend in="SourceGraphic" in2="blurOut3" mode="normal"/></filter></defs><g><rect fill="#FEFECE" filter="url(#f12psvmjjecrws)" height="36.4883" rx="12.5" ry="12.5" style="stroke: #A80036; stroke-width: 1.5;" width="180" x="10" y="48.2441"/><text fill="#000000" font-family="sans-serif" font-size="14" lengthAdjust="spacingAndGlyphs" textLength="160" x="20" y="71.7793">content(文章内容文件夹)</text><rect fill="#FEFECE" filter="url(#f12psvmjjecrws)" height="36.4883" rx="12.5" ry="12.5" style="stroke: #A80036; stroke-width: 1.5;" width="226" x="240" y="48.2441"/><text fill="#000000" font-family="sans-serif" font-size="14" lengthAdjust="spacingAndGlyphs" textLength="206" x="250" y="71.7793">turtorial(菜单栏分类存放文件夹)</text><rect fill="#FEFECE" filter="url(#f12psvmjjecrws)" height="36.4883" rx="12.5" ry="12.5" style="stroke: #A80036; stroke-width: 1.5;" width="215" x="516" y="20"/><text fill="#000000" font-family="sans-serif" font-size="14" lengthAdjust="spacingAndGlyphs" textLength="195" x="526" y="43.5352">使用Typora书写Hugo博客.md</text><path d="M466,66.4883 L476,66.4883 C491,66.4883 491,38.2441 506,38.2441 L516,38.2441 " fill="none" style="stroke: #A80036; stroke-width: 1.0;"/><rect fill="#FEFECE" filter="url(#f12psvmjjecrws)" height="36.4883" rx="12.5" ry="12.5" style="stroke: #A80036; stroke-width: 1.5;" width="93" x="516" y="76.4883"/><text fill="#000000" font-family="sans-serif" font-size="14" lengthAdjust="spacingAndGlyphs" textLength="73" x="526" y="100.0234">image.png</text><path d="M466,66.4883 L476,66.4883 C491,66.4883 491,94.7324 506,94.7324 L516,94.7324 " fill="none" style="stroke: #A80036; stroke-width: 1.0;"/><path d="M190,66.4883 L200,66.4883 C215,66.4883 215,66.4883 230,66.4883 L240,66.4883 " fill="none" style="stroke: #A80036; stroke-width: 1.0;"/><!--
@startmindmap

* content(文章内容文件夹)
** turtorial(菜单栏分类存放文件夹)
*** 使用Typora书写Hugo博客.md
*** image.png

@endmindmap

PlantUML version 1.2019.09(Tue Aug 27 00:19:51 CST 2019)
(GPL source distribution)
Java Runtime: Java(TM) SE Runtime Environment
JVM: Java HotSpot(TM) 64-Bit Server VM
Java Version: 1.8.0_144-b01
Operating System: Mac OS X
OS Version: 10.15.2
Default Encoding: UTF-8
Language: zh
Country: CN
--></g></svg>