<?xml version="1.0" encoding="UTF-8" standalone="no"?><svg xmlns="http://www.w3.org/2000/svg" xmlns:xlink="http://www.w3.org/1999/xlink" contentScriptType="application/ecmascript" contentStyleType="text/css" height="92px" preserveAspectRatio="none" style="width:416px;height:92px;" version="1.1" viewBox="0 0 416 92" width="416px" zoomAndPan="magnify"><defs><filter height="300%" id="f1ovtp3tj7ixrh" width="300%" x="-1" y="-1"><feGaussianBlur result="blurOut" stdDeviation="2.0"/><feColorMatrix in="blurOut" result="blurOut2" type="matrix" values="0 0 0 0 0 0 0 0 0 0 0 0 0 0 0 0 0 0 .4 0"/><feOffset dx="4.0" dy="4.0" in="blurOut2" result="blurOut3"/><feBlend in="SourceGraphic" in2="blurOut3" mode="normal"/></filter></defs><g><!--MD5=[3105c235ecd854154e5019972cc4e034]
class markdown-it-alerts--><rect fill="#FEFECE" filter="url(#f1ovtp3tj7ixrh)" height="73.9102" id="markdown-it-alerts" style="stroke: #A80036; stroke-width: 1.5;" width="146" x="6" y="8"/><ellipse cx="21" cy="24" fill="#ADD1B2" rx="11" ry="11" style="stroke: #A80036; stroke-width: 1.0;"/><path d="M23.4731,30.1431 Q22.8921,30.4419 22.2529,30.5913 Q21.6138,30.7407 20.9082,30.7407 Q18.4014,30.7407 17.0815,29.0889 Q15.7617,27.437 15.7617,24.3159 Q15.7617,21.1865 17.0815,19.5347 Q18.4014,17.8828 20.9082,17.8828 Q21.6138,17.8828 22.2612,18.0322 Q22.9087,18.1816 23.4731,18.4805 L23.4731,21.2031 Q22.8423,20.6221 22.2488,20.3523 Q21.6553,20.0825 21.0244,20.0825 Q19.6797,20.0825 18.9949,21.1492 Q18.3101,22.2158 18.3101,24.3159 Q18.3101,26.4077 18.9949,27.4744 Q19.6797,28.541 21.0244,28.541 Q21.6553,28.541 22.2488,28.2712 Q22.8423,28.0015 23.4731,27.4204 Z "/><text fill="#000000" font-family="sans-serif" font-size="12" lengthAdjust="spacingAndGlyphs" textLength="114" x="35" y="28.5352">markdown-it-alerts</text><line style="stroke: #A80036; stroke-width: 1.5;" x1="7" x2="151" y1="40" y2="40"/><ellipse cx="17" cy="51" fill="none" rx="3" ry="3" style="stroke: #038048; stroke-width: 1.0;"/><text fill="#000000" font-family="sans-serif" font-size="11" lengthAdjust="spacingAndGlyphs" textLength="43" x="26" y="54.6348">success</text><ellipse cx="17" cy="63.9551" fill="none" rx="3" ry="3" style="stroke: #038048; stroke-width: 1.0;"/><text fill="#000000" font-family="sans-serif" font-size="11" lengthAdjust="spacingAndGlyphs" textLength="21" x="26" y="67.5898">info</text><line style="stroke: #A80036; stroke-width: 1.5;" x1="7" x2="151" y1="73.9102" y2="73.9102"/><!--MD5=[6581947413c9e8cfa4f027405f9dbd2f]
class VNote--><rect fill="#FEFECE" filter="url(#f1ovtp3tj7ixrh)" height="73.9102" id="VNote" style="stroke: #A80036; stroke-width: 1.5;" width="99" x="306.5" y="8"/><ellipse cx="335.9" cy="24" fill="#ADD1B2" rx="11" ry="11" style="stroke: #A80036; stroke-width: 1.0;"/><path d="M338.3731,30.1431 Q337.7921,30.4419 337.1529,30.5913 Q336.5138,30.7407 335.8082,30.7407 Q333.3014,30.7407 331.9815,29.0889 Q330.6617,27.437 330.6617,24.3159 Q330.6617,21.1865 331.9815,19.5347 Q333.3014,17.8828 335.8082,17.8828 Q336.5138,17.8828 337.1612,18.0322 Q337.8087,18.1816 338.3731,18.4805 L338.3731,21.2031 Q337.7423,20.6221 337.1488,20.3523 Q336.5553,20.0825 335.9244,20.0825 Q334.5797,20.0825 333.8949,21.1492 Q333.2101,22.2158 333.2101,24.3159 Q333.2101,26.4077 333.8949,27.4744 Q334.5797,28.541 335.9244,28.541 Q336.5553,28.541 337.1488,28.2712 Q337.7423,28.0015 338.3731,27.4204 Z "/><text fill="#000000" font-family="sans-serif" font-size="12" lengthAdjust="spacingAndGlyphs" textLength="35" x="353.1" y="28.5352">VNote</text><line style="stroke: #A80036; stroke-width: 1.5;" x1="307.5" x2="404.5" y1="40" y2="40"/><ellipse cx="317.5" cy="51" fill="none" rx="3" ry="3" style="stroke: #038048; stroke-width: 1.0;"/><text fill="#000000" font-family="sans-serif" font-size="11" lengthAdjust="spacingAndGlyphs" textLength="73" x="326.5" y="54.6348">alert-success</text><ellipse cx="317.5" cy="63.9551" fill="none" rx="3" ry="3" style="stroke: #038048; stroke-width: 1.0;"/><text fill="#000000" font-family="sans-serif" font-size="11" lengthAdjust="spacingAndGlyphs" textLength="51" x="326.5" y="67.5898">alert-info</text><line style="stroke: #A80036; stroke-width: 1.5;" x1="307.5" x2="404.5" y1="73.9102" y2="73.9102"/><!--MD5=[b88f8eab0de795058a830d480f4483f3]
link markdown-it-alerts to VNote--><path d="M152.14,45 C198.81,45 258.33,45 300.99,45 " fill="none" id="markdown-it-alerts-&gt;VNote" style="stroke: #A80036; stroke-width: 1.0;"/><polygon fill="#A80036" points="306.1,45,297.1,41,301.1,45,297.1,49,306.1,45" style="stroke: #A80036; stroke-width: 1.0;"/><text fill="#000000" font-family="sans-serif" font-size="13" lengthAdjust="spacingAndGlyphs" textLength="118" x="170.25" y="38.5684">markdown语法差异</text><!--MD5=[b365f7f133e95017ded51828295e01e1]
@startuml

class markdown-it-alerts {
    + success
    + info
}

class VNote {
    + alert-success
    + alert-info
}

"markdown-it-alerts" -> VNote: markdown语法差异

@enduml

PlantUML version 1.2020.10(Sun May 17 17:35:57 CST 2020)
(GPL source distribution)
Java Runtime: Java(TM) SE Runtime Environment
JVM: Java HotSpot(TM) 64-Bit Server VM
Java Version: 14.0.1+7
Operating System: Mac OS X
Default Encoding: UTF-8
Language: zh
Country: CN
--></g></svg>