<?xml version="1.0" encoding="UTF-8" standalone="no"?><svg xmlns="http://www.w3.org/2000/svg" xmlns:xlink="http://www.w3.org/1999/xlink" contentScriptType="application/ecmascript" contentStyleType="text/css" height="913px" preserveAspectRatio="none" style="width:457px;height:913px;" version="1.1" viewBox="0 0 457 913" width="457px" zoomAndPan="magnify"><defs><filter height="300%" id="f1i187osex4tp5" width="300%" x="-1" y="-1"><feGaussianBlur result="blurOut" stdDeviation="2.0"/><feColorMatrix in="blurOut" result="blurOut2" type="matrix" values="0 0 0 0 0 0 0 0 0 0 0 0 0 0 0 0 0 0 .4 0"/><feOffset dx="4.0" dy="4.0" in="blurOut2" result="blurOut3"/><feBlend in="SourceGraphic" in2="blurOut3" mode="normal"/></filter></defs><g><ellipse cx="178.375" cy="20" fill="#000000" filter="url(#f1i187osex4tp5)" rx="10" ry="10" style="stroke: none; stroke-width: 1.0;"/><rect fill="#FEFECE" filter="url(#f1i187osex4tp5)" height="34.1328" rx="12.5" ry="12.5" style="stroke: #A80036; stroke-width: 1.5;" width="183" x="86.875" y="50"/><text fill="#000000" font-family="sans-serif" font-size="12" lengthAdjust="spacingAndGlyphs" textLength="163" x="96.875" y="71.6016">ClickServlet.handleRequest()</text><rect fill="#FEFECE" filter="url(#f1i187osex4tp5)" height="34.1328" rx="12.5" ry="12.5" style="stroke: #A80036; stroke-width: 1.5;" width="76" x="140.375" y="104.1328"/><text fill="#000000" font-family="sans-serif" font-size="12" lengthAdjust="spacingAndGlyphs" textLength="56" x="150.375" y="125.7344">new page</text><rect fill="#FEFECE" filter="url(#f1i187osex4tp5)" height="34.1328" rx="12.5" ry="12.5" style="stroke: #A80036; stroke-width: 1.5;" width="91" x="132.875" y="206.7432"/><text fill="#000000" font-family="sans-serif" font-size="12" lengthAdjust="spacingAndGlyphs" textLength="71" x="142.875" y="228.3447">Page.onInit()</text><rect fill="#FEFECE" filter="url(#f1i187osex4tp5)" height="34.1328" rx="12.5" ry="12.5" style="stroke: #A80036; stroke-width: 1.5;" width="113" x="121.875" y="309.3535"/><text fill="#000000" font-family="sans-serif" font-size="12" lengthAdjust="spacingAndGlyphs" textLength="93" x="131.875" y="330.9551">Process controls</text><polygon fill="#FEFECE" filter="url(#f1i187osex4tp5)" points="120.875,363.4863,235.875,363.4863,247.875,375.4863,235.875,387.4863,120.875,387.4863,108.875,375.4863,120.875,363.4863" style="stroke: #A80036; stroke-width: 1.5;"/><text fill="#000000" font-family="sans-serif" font-size="11" lengthAdjust="spacingAndGlyphs" textLength="115" x="120.875" y="379.6436">continue processing?</text><text fill="#000000" font-family="sans-serif" font-size="11" lengthAdjust="spacingAndGlyphs" textLength="14" x="247.875" y="373.166">no</text><ellipse cx="283.875" cy="375.4863" fill="#FFFFFF" filter="url(#f1i187osex4tp5)" rx="11" ry="11" style="stroke: #000000; stroke-width: 1.0;"/><ellipse cx="283.875" cy="375.4863" fill="#000000" rx="6" ry="6" style="stroke: #7F7F7F; stroke-width: 1.0;"/><polygon fill="#FEFECE" filter="url(#f1i187osex4tp5)" points="159.875,431.9199,196.875,431.9199,208.875,443.9199,196.875,455.9199,159.875,455.9199,147.875,443.9199,159.875,431.9199" style="stroke: #A80036; stroke-width: 1.5;"/><text fill="#000000" font-family="sans-serif" font-size="11" lengthAdjust="spacingAndGlyphs" textLength="37" x="159.875" y="448.0771">isPost?</text><text fill="#000000" font-family="sans-serif" font-size="11" lengthAdjust="spacingAndGlyphs" textLength="18" x="129.875" y="441.5996">yes</text><text fill="#000000" font-family="sans-serif" font-size="11" lengthAdjust="spacingAndGlyphs" textLength="14" x="208.875" y="441.5996">no</text><rect fill="#FEFECE" filter="url(#f1i187osex4tp5)" height="34.1328" rx="12.5" ry="12.5" style="stroke: #A80036; stroke-width: 1.5;" width="98" x="71.375" y="465.9199"/><text fill="#000000" font-family="sans-serif" font-size="12" lengthAdjust="spacingAndGlyphs" textLength="78" x="81.375" y="487.5215">Page.onPost()</text><rect fill="#FEFECE" filter="url(#f1i187osex4tp5)" height="34.1328" rx="12.5" ry="12.5" style="stroke: #A80036; stroke-width: 1.5;" width="94" x="189.375" y="465.9199"/><text fill="#000000" font-family="sans-serif" font-size="12" lengthAdjust="spacingAndGlyphs" textLength="74" x="199.375" y="487.5215">Page.onGet()</text><polygon fill="#FEFECE" filter="url(#f1i187osex4tp5)" points="178.375,506.0527,190.375,518.0527,178.375,530.0527,166.375,518.0527,178.375,506.0527" style="stroke: #A80036; stroke-width: 1.5;"/><rect fill="#FEFECE" filter="url(#f1i187osex4tp5)" height="34.1328" rx="12.5" ry="12.5" style="stroke: #A80036; stroke-width: 1.5;" width="116" x="120.375" y="550.0527"/><text fill="#000000" font-family="sans-serif" font-size="12" lengthAdjust="spacingAndGlyphs" textLength="96" x="130.375" y="571.6543">Page.onRender()</text><polygon fill="#FEFECE" filter="url(#f1i187osex4tp5)" points="149.375,260.876,207.375,260.876,219.375,272.876,207.375,284.876,149.375,284.876,137.375,272.876,149.375,260.876" style="stroke: #A80036; stroke-width: 1.5;"/><text fill="#000000" font-family="sans-serif" font-size="11" lengthAdjust="spacingAndGlyphs" textLength="14" x="182.375" y="295.5107">no</text><text fill="#000000" font-family="sans-serif" font-size="11" lengthAdjust="spacingAndGlyphs" textLength="58" x="149.375" y="277.0332">isForward?</text><polygon fill="#FEFECE" filter="url(#f1i187osex4tp5)" points="178.375,604.1855,190.375,616.1855,178.375,628.1855,166.375,616.1855,178.375,604.1855" style="stroke: #A80036; stroke-width: 1.5;"/><polygon fill="#FEFECE" filter="url(#f1i187osex4tp5)" points="119.375,158.2656,237.375,158.2656,249.375,170.2656,237.375,182.2656,119.375,182.2656,107.375,170.2656,119.375,158.2656" style="stroke: #A80036; stroke-width: 1.5;"/><text fill="#000000" font-family="sans-serif" font-size="11" lengthAdjust="spacingAndGlyphs" textLength="22" x="182.375" y="192.9004">true</text><text fill="#000000" font-family="sans-serif" font-size="11" lengthAdjust="spacingAndGlyphs" textLength="118" x="119.375" y="174.4229">Page.onSecurityCheck</text><text fill="#000000" font-family="sans-serif" font-size="11" lengthAdjust="spacingAndGlyphs" textLength="25" x="249.375" y="167.9453">false</text><polygon fill="#FEFECE" filter="url(#f1i187osex4tp5)" points="178.375,648.1855,190.375,660.1855,178.375,672.1855,166.375,660.1855,178.375,648.1855" style="stroke: #A80036; stroke-width: 1.5;"/><polygon fill="#FEFECE" filter="url(#f1i187osex4tp5)" points="146.375,692.1855,210.375,692.1855,222.375,704.1855,210.375,716.1855,146.375,716.1855,134.375,704.1855,146.375,692.1855" style="stroke: #A80036; stroke-width: 1.5;"/><text fill="#000000" font-family="sans-serif" font-size="11" lengthAdjust="spacingAndGlyphs" textLength="64" x="146.375" y="708.3428">do redirect?</text><text fill="#000000" font-family="sans-serif" font-size="11" lengthAdjust="spacingAndGlyphs" textLength="18" x="116.375" y="701.8652">yes</text><rect fill="#FEFECE" filter="url(#f1i187osex4tp5)" height="34.1328" rx="12.5" ry="12.5" style="stroke: #A80036; stroke-width: 1.5;" width="114" x="11" y="726.1855"/><text fill="#000000" font-family="sans-serif" font-size="12" lengthAdjust="spacingAndGlyphs" textLength="94" x="21" y="747.7871">redirect process</text><polygon fill="#FEFECE" filter="url(#f1i187osex4tp5)" points="256.75,726.1855,320.75,726.1855,332.75,738.1855,320.75,750.1855,256.75,750.1855,244.75,738.1855,256.75,726.1855" style="stroke: #A80036; stroke-width: 1.5;"/><text fill="#000000" font-family="sans-serif" font-size="11" lengthAdjust="spacingAndGlyphs" textLength="64" x="256.75" y="742.3428">do forward?</text><text fill="#000000" font-family="sans-serif" font-size="11" lengthAdjust="spacingAndGlyphs" textLength="18" x="226.75" y="735.8652">yes</text><text fill="#000000" font-family="sans-serif" font-size="11" lengthAdjust="spacingAndGlyphs" textLength="14" x="332.75" y="735.8652">no</text><rect fill="#FEFECE" filter="url(#f1i187osex4tp5)" height="34.1328" rx="12.5" ry="12.5" style="stroke: #A80036; stroke-width: 1.5;" width="115" x="155" y="760.1855"/><text fill="#000000" font-family="sans-serif" font-size="12" lengthAdjust="spacingAndGlyphs" textLength="95" x="165" y="781.7871">Forward request</text><rect fill="#FEFECE" filter="url(#f1i187osex4tp5)" height="34.1328" rx="12.5" ry="12.5" style="stroke: #A80036; stroke-width: 1.5;" width="150" x="290" y="760.1855"/><text fill="#000000" font-family="sans-serif" font-size="12" lengthAdjust="spacingAndGlyphs" textLength="130" x="300" y="781.7871">Render page template</text><polygon fill="#FEFECE" filter="url(#f1i187osex4tp5)" points="288.75,800.3184,300.75,812.3184,288.75,824.3184,276.75,812.3184,288.75,800.3184" style="stroke: #A80036; stroke-width: 1.5;"/><polygon fill="#FEFECE" filter="url(#f1i187osex4tp5)" points="178.375,830.3184,190.375,842.3184,178.375,854.3184,166.375,842.3184,178.375,830.3184" style="stroke: #A80036; stroke-width: 1.5;"/><ellipse cx="178.375" cy="885.3184" fill="#FFFFFF" filter="url(#f1i187osex4tp5)" rx="11" ry="11" style="stroke: #000000; stroke-width: 1.0;"/><ellipse cx="178.375" cy="885.3184" fill="#000000" rx="6" ry="6" style="stroke: #7F7F7F; stroke-width: 1.0;"/><line style="stroke: #A80036; stroke-width: 1.5;" x1="178.375" x2="178.375" y1="30" y2="50"/><polygon fill="#A80036" points="174.375,40,178.375,50,182.375,40,178.375,44" style="stroke: #A80036; stroke-width: 1.0;"/><line style="stroke: #A80036; stroke-width: 1.5;" x1="178.375" x2="178.375" y1="84.1328" y2="104.1328"/><polygon fill="#A80036" points="174.375,94.1328,178.375,104.1328,182.375,94.1328,178.375,98.1328" style="stroke: #A80036; stroke-width: 1.0;"/><line style="stroke: #A80036; stroke-width: 1.5;" x1="178.375" x2="178.375" y1="387.4863" y2="431.9199"/><polygon fill="#A80036" points="174.375,421.9199,178.375,431.9199,182.375,421.9199,178.375,425.9199" style="stroke: #A80036; stroke-width: 1.0;"/><line style="stroke: #A80036; stroke-width: 1.5;" x1="247.875" x2="272.875" y1="375.4863" y2="375.4863"/><polygon fill="#A80036" points="262.875,371.4863,272.875,375.4863,262.875,379.4863,266.875,375.4863" style="stroke: #A80036; stroke-width: 1.0;"/><line style="stroke: #A80036; stroke-width: 1.5;" x1="178.375" x2="178.375" y1="343.4863" y2="363.4863"/><polygon fill="#A80036" points="174.375,353.4863,178.375,363.4863,182.375,353.4863,178.375,357.4863" style="stroke: #A80036; stroke-width: 1.0;"/><line style="stroke: #A80036; stroke-width: 1.5;" x1="147.875" x2="120.375" y1="443.9199" y2="443.9199"/><line style="stroke: #A80036; stroke-width: 1.5;" x1="120.375" x2="120.375" y1="443.9199" y2="465.9199"/><polygon fill="#A80036" points="116.375,455.9199,120.375,465.9199,124.375,455.9199,120.375,459.9199" style="stroke: #A80036; stroke-width: 1.0;"/><line style="stroke: #A80036; stroke-width: 1.5;" x1="208.875" x2="236.375" y1="443.9199" y2="443.9199"/><line style="stroke: #A80036; stroke-width: 1.5;" x1="236.375" x2="236.375" y1="443.9199" y2="465.9199"/><polygon fill="#A80036" points="232.375,455.9199,236.375,465.9199,240.375,455.9199,236.375,459.9199" style="stroke: #A80036; stroke-width: 1.0;"/><line style="stroke: #A80036; stroke-width: 1.5;" x1="120.375" x2="120.375" y1="500.0527" y2="518.0527"/><line style="stroke: #A80036; stroke-width: 1.5;" x1="120.375" x2="166.375" y1="518.0527" y2="518.0527"/><polygon fill="#A80036" points="156.375,514.0527,166.375,518.0527,156.375,522.0527,160.375,518.0527" style="stroke: #A80036; stroke-width: 1.0;"/><line style="stroke: #A80036; stroke-width: 1.5;" x1="236.375" x2="236.375" y1="500.0527" y2="518.0527"/><line style="stroke: #A80036; stroke-width: 1.5;" x1="236.375" x2="190.375" y1="518.0527" y2="518.0527"/><polygon fill="#A80036" points="200.375,514.0527,190.375,518.0527,200.375,522.0527,196.375,518.0527" style="stroke: #A80036; stroke-width: 1.0;"/><line style="stroke: #A80036; stroke-width: 1.5;" x1="178.375" x2="178.375" y1="530.0527" y2="550.0527"/><polygon fill="#A80036" points="174.375,540.0527,178.375,550.0527,182.375,540.0527,178.375,544.0527" style="stroke: #A80036; stroke-width: 1.0;"/><line style="stroke: #A80036; stroke-width: 1.5;" x1="178.375" x2="178.375" y1="284.876" y2="309.3535"/><polygon fill="#A80036" points="174.375,299.3535,178.375,309.3535,182.375,299.3535,178.375,303.3535" style="stroke: #A80036; stroke-width: 1.0;"/><line style="stroke: #A80036; stroke-width: 1.5;" x1="219.375" x2="316.875" y1="272.876" y2="272.876"/><polygon fill="#A80036" points="312.875,417.4863,316.875,427.4863,320.875,417.4863,316.875,421.4863" style="stroke: #A80036; stroke-width: 1.5;"/><line style="stroke: #A80036; stroke-width: 1.5;" x1="316.875" x2="316.875" y1="272.876" y2="616.1855"/><line style="stroke: #A80036; stroke-width: 1.5;" x1="316.875" x2="190.375" y1="616.1855" y2="616.1855"/><polygon fill="#A80036" points="200.375,612.1855,190.375,616.1855,200.375,620.1855,196.375,616.1855" style="stroke: #A80036; stroke-width: 1.0;"/><line style="stroke: #A80036; stroke-width: 1.5;" x1="178.375" x2="178.375" y1="584.1855" y2="604.1855"/><polygon fill="#A80036" points="174.375,594.1855,178.375,604.1855,182.375,594.1855,178.375,598.1855" style="stroke: #A80036; stroke-width: 1.0;"/><line style="stroke: #A80036; stroke-width: 1.5;" x1="178.375" x2="178.375" y1="240.876" y2="260.876"/><polygon fill="#A80036" points="174.375,250.876,178.375,260.876,182.375,250.876,178.375,254.876" style="stroke: #A80036; stroke-width: 1.0;"/><line style="stroke: #A80036; stroke-width: 1.5;" x1="178.375" x2="178.375" y1="182.2656" y2="206.7432"/><polygon fill="#A80036" points="174.375,196.7432,178.375,206.7432,182.375,196.7432,178.375,200.7432" style="stroke: #A80036; stroke-width: 1.0;"/><line style="stroke: #A80036; stroke-width: 1.5;" x1="249.375" x2="338.875" y1="170.2656" y2="170.2656"/><polygon fill="#A80036" points="334.875,397.4863,338.875,407.4863,342.875,397.4863,338.875,401.4863" style="stroke: #A80036; stroke-width: 1.5;"/><line style="stroke: #A80036; stroke-width: 1.5;" x1="338.875" x2="338.875" y1="170.2656" y2="660.1855"/><line style="stroke: #A80036; stroke-width: 1.5;" x1="338.875" x2="190.375" y1="660.1855" y2="660.1855"/><polygon fill="#A80036" points="200.375,656.1855,190.375,660.1855,200.375,664.1855,196.375,660.1855" style="stroke: #A80036; stroke-width: 1.0;"/><line style="stroke: #A80036; stroke-width: 1.5;" x1="178.375" x2="178.375" y1="628.1855" y2="648.1855"/><polygon fill="#A80036" points="174.375,638.1855,178.375,648.1855,182.375,638.1855,178.375,642.1855" style="stroke: #A80036; stroke-width: 1.0;"/><line style="stroke: #A80036; stroke-width: 1.5;" x1="178.375" x2="178.375" y1="138.2656" y2="158.2656"/><polygon fill="#A80036" points="174.375,148.2656,178.375,158.2656,182.375,148.2656,178.375,152.2656" style="stroke: #A80036; stroke-width: 1.0;"/><line style="stroke: #A80036; stroke-width: 1.5;" x1="244.75" x2="212.5" y1="738.1855" y2="738.1855"/><line style="stroke: #A80036; stroke-width: 1.5;" x1="212.5" x2="212.5" y1="738.1855" y2="760.1855"/><polygon fill="#A80036" points="208.5,750.1855,212.5,760.1855,216.5,750.1855,212.5,754.1855" style="stroke: #A80036; stroke-width: 1.0;"/><line style="stroke: #A80036; stroke-width: 1.5;" x1="332.75" x2="365" y1="738.1855" y2="738.1855"/><line style="stroke: #A80036; stroke-width: 1.5;" x1="365" x2="365" y1="738.1855" y2="760.1855"/><polygon fill="#A80036" points="361,750.1855,365,760.1855,369,750.1855,365,754.1855" style="stroke: #A80036; stroke-width: 1.0;"/><line style="stroke: #A80036; stroke-width: 1.5;" x1="212.5" x2="212.5" y1="794.3184" y2="812.3184"/><line style="stroke: #A80036; stroke-width: 1.5;" x1="212.5" x2="276.75" y1="812.3184" y2="812.3184"/><polygon fill="#A80036" points="266.75,808.3184,276.75,812.3184,266.75,816.3184,270.75,812.3184" style="stroke: #A80036; stroke-width: 1.0;"/><line style="stroke: #A80036; stroke-width: 1.5;" x1="365" x2="365" y1="794.3184" y2="812.3184"/><line style="stroke: #A80036; stroke-width: 1.5;" x1="365" x2="300.75" y1="812.3184" y2="812.3184"/><polygon fill="#A80036" points="310.75,808.3184,300.75,812.3184,310.75,816.3184,306.75,812.3184" style="stroke: #A80036; stroke-width: 1.0;"/><line style="stroke: #A80036; stroke-width: 1.5;" x1="134.375" x2="68" y1="704.1855" y2="704.1855"/><line style="stroke: #A80036; stroke-width: 1.5;" x1="68" x2="68" y1="704.1855" y2="726.1855"/><polygon fill="#A80036" points="64,716.1855,68,726.1855,72,716.1855,68,720.1855" style="stroke: #A80036; stroke-width: 1.0;"/><line style="stroke: #A80036; stroke-width: 1.5;" x1="222.375" x2="288.75" y1="704.1855" y2="704.1855"/><line style="stroke: #A80036; stroke-width: 1.5;" x1="288.75" x2="288.75" y1="704.1855" y2="726.1855"/><polygon fill="#A80036" points="284.75,716.1855,288.75,726.1855,292.75,716.1855,288.75,720.1855" style="stroke: #A80036; stroke-width: 1.0;"/><line style="stroke: #A80036; stroke-width: 1.5;" x1="68" x2="68" y1="760.3184" y2="842.3184"/><line style="stroke: #A80036; stroke-width: 1.5;" x1="68" x2="166.375" y1="842.3184" y2="842.3184"/><polygon fill="#A80036" points="156.375,838.3184,166.375,842.3184,156.375,846.3184,160.375,842.3184" style="stroke: #A80036; stroke-width: 1.0;"/><line style="stroke: #A80036; stroke-width: 1.5;" x1="288.75" x2="288.75" y1="824.3184" y2="842.3184"/><line style="stroke: #A80036; stroke-width: 1.5;" x1="288.75" x2="190.375" y1="842.3184" y2="842.3184"/><polygon fill="#A80036" points="200.375,838.3184,190.375,842.3184,200.375,846.3184,196.375,842.3184" style="stroke: #A80036; stroke-width: 1.0;"/><line style="stroke: #A80036; stroke-width: 1.5;" x1="178.375" x2="178.375" y1="672.1855" y2="692.1855"/><polygon fill="#A80036" points="174.375,682.1855,178.375,692.1855,182.375,682.1855,178.375,686.1855" style="stroke: #A80036; stroke-width: 1.0;"/><line style="stroke: #A80036; stroke-width: 1.5;" x1="178.375" x2="178.375" y1="854.3184" y2="874.3184"/><polygon fill="#A80036" points="174.375,864.3184,178.375,874.3184,182.375,864.3184,178.375,868.3184" style="stroke: #A80036; stroke-width: 1.0;"/><!--MD5=[8519b8df959b7b4a4b288f3063d08d15]
@startuml

start
:ClickServlet.handleRequest();
:new page;
if (Page.onSecurityCheck) then (true)
  :Page.onInit();
  if (isForward?) then (no)
    :Process controls;
    if (continue processing?) then (no)
      stop
    endif
    
    if (isPost?) then (yes)
      :Page.onPost();
    else (no)
      :Page.onGet();
    endif
    :Page.onRender();
  endif
else (false)
endif

if (do redirect?) then (yes)
  :redirect process;
else
  if (do forward?) then (yes)
    :Forward request;
  else (no)
    :Render page template;
  endif
endif

stop

@enduml

PlantUML version 1.2020.19(Mon Oct 12 23:10:01 CST 2020)
(GPL source distribution)
Java Runtime: Java(TM) SE Runtime Environment
JVM: Java HotSpot(TM) 64-Bit Server VM
Default Encoding: UTF-8
Language: zh
Country: CN
--></g></svg>