<?xml version="1.0" encoding="UTF-8" standalone="no"?><svg xmlns="http://www.w3.org/2000/svg" xmlns:xlink="http://www.w3.org/1999/xlink" contentScriptType="application/ecmascript" contentStyleType="text/css" height="399px" preserveAspectRatio="none" style="width:364px;height:399px;" version="1.1" viewBox="0 0 364 399" width="364px" zoomAndPan="magnify"><defs><filter height="300%" id="fdxu63edihdqi" width="300%" x="-1" y="-1"><feGaussianBlur result="blurOut" stdDeviation="2.0"/><feColorMatrix in="blurOut" result="blurOut2" type="matrix" values="0 0 0 0 0 0 0 0 0 0 0 0 0 0 0 0 0 0 .4 0"/><feOffset dx="4.0" dy="4.0" in="blurOut2" result="blurOut3"/><feBlend in="SourceGraphic" in2="blurOut3" mode="normal"/></filter></defs><g><rect fill="#FFFFFF" filter="url(#fdxu63edihdqi)" height="177.1738" style="stroke: #A80036; stroke-width: 1.0;" width="10" x="92.5" y="119.7988"/><rect fill="#FFFFFF" filter="url(#fdxu63edihdqi)" height="103.2422" style="stroke: #A80036; stroke-width: 1.0;" width="10" x="200.5" y="164.4199"/><rect fill="#FFFFFF" filter="url(#fdxu63edihdqi)" height="29.3105" style="stroke: #A80036; stroke-width: 1.0;" width="10" x="307" y="193.7305"/><line style="stroke: #A80036; stroke-width: 1.0; stroke-dasharray: 5.0,5.0;" x1="23" x2="23" y1="88.4883" y2="314.9727"/><line style="stroke: #A80036; stroke-width: 1.0; stroke-dasharray: 5.0,5.0;" x1="97.5" x2="97.5" y1="88.4883" y2="314.9727"/><line style="stroke: #A80036; stroke-width: 1.0; stroke-dasharray: 5.0,5.0;" x1="205.5" x2="205.5" y1="88.4883" y2="314.9727"/><line style="stroke: #A80036; stroke-width: 1.0; stroke-dasharray: 5.0,5.0;" x1="311.5" x2="311.5" y1="88.4883" y2="314.9727"/><text fill="#000000" font-family="sans-serif" font-size="14" lengthAdjust="spacingAndGlyphs" text-decoration="underline" textLength="31" x="5" y="85.5352">User</text><ellipse cx="23.5" cy="15" fill="#FEFECE" filter="url(#fdxu63edihdqi)" rx="8" ry="8" style="stroke: #A80036; stroke-width: 2.0;"/><path d="M23.5,23 L23.5,50 M10.5,31 L36.5,31 M23.5,50 L10.5,65 M23.5,50 L36.5,65 " fill="none" filter="url(#fdxu63edihdqi)" style="stroke: #A80036; stroke-width: 2.0;"/><text fill="#000000" font-family="sans-serif" font-size="14" lengthAdjust="spacingAndGlyphs" text-decoration="underline" textLength="31" x="5" y="327.5078">User</text><ellipse cx="23.5" cy="340.4609" fill="#FEFECE" filter="url(#fdxu63edihdqi)" rx="8" ry="8" style="stroke: #A80036; stroke-width: 2.0;"/><path d="M23.5,348.4609 L23.5,375.4609 M10.5,356.4609 L36.5,356.4609 M23.5,375.4609 L10.5,390.4609 M23.5,375.4609 L36.5,390.4609 " fill="none" filter="url(#fdxu63edihdqi)" style="stroke: #A80036; stroke-width: 2.0;"/><rect fill="#FEFECE" filter="url(#fdxu63edihdqi)" height="30.4883" rx="10" ry="10" style="stroke: #A80036; stroke-width: 1.5;" width="84" x="53.5" y="53"/><text fill="#000000" font-family="sans-serif" font-size="14" lengthAdjust="spacingAndGlyphs" text-decoration="underline" textLength="70" x="60.5" y="73.5352">First Class</text><rect fill="#FEFECE" filter="url(#fdxu63edihdqi)" height="30.4883" rx="10" ry="10" style="stroke: #A80036; stroke-width: 1.5;" width="84" x="53.5" y="313.9727"/><text fill="#000000" font-family="sans-serif" font-size="14" lengthAdjust="spacingAndGlyphs" text-decoration="underline" textLength="70" x="60.5" y="334.5078">First Class</text><rect fill="#FEFECE" filter="url(#fdxu63edihdqi)" height="30.4883" rx="10" ry="10" style="stroke: #A80036; stroke-width: 1.5;" width="104" x="151.5" y="53"/><text fill="#000000" font-family="sans-serif" font-size="14" lengthAdjust="spacingAndGlyphs" text-decoration="underline" textLength="90" x="158.5" y="73.5352">Second Class</text><rect fill="#FEFECE" filter="url(#fdxu63edihdqi)" height="30.4883" rx="10" ry="10" style="stroke: #A80036; stroke-width: 1.5;" width="104" x="151.5" y="313.9727"/><text fill="#000000" font-family="sans-serif" font-size="14" lengthAdjust="spacingAndGlyphs" text-decoration="underline" textLength="90" x="158.5" y="334.5078">Second Class</text><rect fill="#FEFECE" filter="url(#fdxu63edihdqi)" height="30.4883" rx="10" ry="10" style="stroke: #A80036; stroke-width: 1.5;" width="81" x="269.5" y="53"/><text fill="#000000" font-family="sans-serif" font-size="14" lengthAdjust="spacingAndGlyphs" text-decoration="underline" textLength="67" x="276.5" y="73.5352">Last Class</text><rect fill="#FEFECE" filter="url(#fdxu63edihdqi)" height="30.4883" rx="10" ry="10" style="stroke: #A80036; stroke-width: 1.5;" width="81" x="269.5" y="313.9727"/><text fill="#000000" font-family="sans-serif" font-size="14" lengthAdjust="spacingAndGlyphs" text-decoration="underline" textLength="67" x="276.5" y="334.5078">Last Class</text><rect fill="#FFFFFF" filter="url(#fdxu63edihdqi)" height="177.1738" style="stroke: #A80036; stroke-width: 1.0;" width="10" x="92.5" y="119.7988"/><rect fill="#FFFFFF" filter="url(#fdxu63edihdqi)" height="103.2422" style="stroke: #A80036; stroke-width: 1.0;" width="10" x="200.5" y="164.4199"/><rect fill="#FFFFFF" filter="url(#fdxu63edihdqi)" height="29.3105" style="stroke: #A80036; stroke-width: 1.0;" width="10" x="307" y="193.7305"/><polygon fill="#A80036" points="80.5,115.7988,90.5,119.7988,80.5,123.7988,84.5,119.7988" style="stroke: #A80036; stroke-width: 1.0;"/><line style="stroke: #A80036; stroke-width: 2.0;" x1="23.5" x2="86.5" y1="119.7988" y2="119.7988"/><text fill="#000000" font-family="sans-serif" font-size="13" lengthAdjust="spacingAndGlyphs" textLength="50" x="30.5" y="115.0566">DoWork</text><polygon fill="#A80036" points="188.5,160.4199,198.5,164.4199,188.5,168.4199,192.5,164.4199" style="stroke: #A80036; stroke-width: 1.0;"/><line style="stroke: #A80036; stroke-width: 2.0;" x1="102.5" x2="194.5" y1="164.4199" y2="164.4199"/><text fill="#000000" font-family="sans-serif" font-size="13" lengthAdjust="spacingAndGlyphs" textLength="40" x="109.5" y="144.3672">Create</text><text fill="#000000" font-family="sans-serif" font-size="13" lengthAdjust="spacingAndGlyphs" textLength="50" x="109.5" y="159.6777">Request</text><polygon fill="#A80036" points="295,189.7305,305,193.7305,295,197.7305,299,193.7305" style="stroke: #A80036; stroke-width: 1.0;"/><line style="stroke: #A80036; stroke-width: 2.0;" x1="210.5" x2="301" y1="193.7305" y2="193.7305"/><text fill="#000000" font-family="sans-serif" font-size="13" lengthAdjust="spacingAndGlyphs" textLength="50" x="217.5" y="188.9883">DoWork</text><polygon fill="#A80036" points="221.5,219.041,211.5,223.041,221.5,227.041,217.5,223.041" style="stroke: #A80036; stroke-width: 1.0;"/><line style="stroke: #A80036; stroke-width: 2.0; stroke-dasharray: 2.0,2.0;" x1="215.5" x2="311" y1="223.041" y2="223.041"/><text fill="#000000" font-family="sans-serif" font-size="13" lengthAdjust="spacingAndGlyphs" textLength="65" x="227.5" y="218.2988">WorkDone</text><line style="stroke: #A80036; stroke-width: 2.0;" x1="303" x2="321" y1="214.041" y2="232.041"/><line style="stroke: #A80036; stroke-width: 2.0;" x1="303" x2="321" y1="232.041" y2="214.041"/><polygon fill="#A80036" points="113.5,263.6621,103.5,267.6621,113.5,271.6621,109.5,267.6621" style="stroke: #A80036; stroke-width: 1.0;"/><line style="stroke: #A80036; stroke-width: 2.0; stroke-dasharray: 2.0,2.0;" x1="107.5" x2="204.5" y1="267.6621" y2="267.6621"/><text fill="#000000" font-family="sans-serif" font-size="13" lengthAdjust="spacingAndGlyphs" textLength="50" x="119.5" y="247.6094">Request</text><text fill="#000000" font-family="sans-serif" font-size="13" lengthAdjust="spacingAndGlyphs" textLength="48" x="119.5" y="262.9199">Created</text><polygon fill="#A80036" points="34.5,292.9727,24.5,296.9727,34.5,300.9727,30.5,296.9727" style="stroke: #A80036; stroke-width: 1.0;"/><line style="stroke: #A80036; stroke-width: 2.0; stroke-dasharray: 2.0,2.0;" x1="28.5" x2="96.5" y1="296.9727" y2="296.9727"/><text fill="#000000" font-family="sans-serif" font-size="13" lengthAdjust="spacingAndGlyphs" textLength="33" x="40.5" y="292.2305">Done</text><!--MD5=[f26dac07b17a969719b17226d52c4465]
@startuml
skinparam sequenceArrowThickness 2
skinparam roundcorner 20
skinparam maxmessagesize 60
skinparam sequenceParticipant underline

actor User
participant "First Class" as A
participant "Second Class" as B
participant "Last Class" as C

User -> A: DoWork
activate A

A -> B: Create Request
activate B

B -> C: DoWork
activate C
C - -> B: WorkDone
destroy C

B - -> A: Request Created
deactivate B

A - -> User: Done
deactivate A

@enduml

PlantUML version 1.2020.19(Mon Oct 12 23:10:01 CST 2020)
(GPL source distribution)
Java Runtime: Java(TM) SE Runtime Environment
JVM: Java HotSpot(TM) 64-Bit Server VM
Default Encoding: UTF-8
Language: zh
Country: CN
--></g></svg>