<?xml version="1.0" encoding="UTF-8" standalone="no"?><svg xmlns="http://www.w3.org/2000/svg" xmlns:xlink="http://www.w3.org/1999/xlink" contentScriptType="application/ecmascript" contentStyleType="text/css" height="560px" preserveAspectRatio="none" style="width:492px;height:560px;" version="1.1" viewBox="0 0 492 560" width="492px" zoomAndPan="magnify"><defs><filter height="300%" id="f1nn67vzz8opij" width="300%" x="-1" y="-1"><feGaussianBlur result="blurOut" stdDeviation="2.0"/><feColorMatrix in="blurOut" result="blurOut2" type="matrix" values="0 0 0 0 0 0 0 0 0 0 0 0 0 0 0 0 0 0 .4 0"/><feOffset dx="4.0" dy="4.0" in="blurOut2" result="blurOut3"/><feBlend in="SourceGraphic" in2="blurOut3" mode="normal"/></filter></defs><g><!--MD5=[262aabfe314dcb38308ea550cce12173]
cluster Some Group--><polygon fill="#FFFFFF" filter="url(#f1nn67vzz8opij)" points="17,6,110,6,117,28.4883,475,28.4883,475,103,17,103,17,6" style="stroke: #000000; stroke-width: 1.5;"/><line style="stroke: #000000; stroke-width: 1.5;" x1="17" x2="117" y1="28.4883" y2="28.4883"/><text fill="#000000" font-family="sans-serif" font-size="14" font-weight="bold" lengthAdjust="spacingAndGlyphs" textLength="87" x="21" y="21.5352">Some Group</text><!--MD5=[a809f7b457cbc4d947186a4bb863b06b]
cluster Other Groups--><polygon fill="#FFFFFF" filter="url(#f1nn67vzz8opij)" points="16,137,26,127,277,127,277,219,267,229,16,229,16,137" style="stroke: #000000; stroke-width: 1.5;"/><line style="stroke: #000000; stroke-width: 1.5;" x1="267" x2="277" y1="137" y2="127"/><line style="stroke: #000000; stroke-width: 1.5;" x1="16" x2="267" y1="137" y2="137"/><line style="stroke: #000000; stroke-width: 1.5;" x1="267" x2="267" y1="137" y2="229"/><text fill="#000000" font-family="sans-serif" font-size="14" font-weight="bold" lengthAdjust="spacingAndGlyphs" textLength="97" x="94" y="153.5352">Other Groups</text><path d="M310.5727,161.149 C314.1927,155.1121 318.0335,154.8768 323.1481,159.3628 C325.5226,153.415 330.0592,151.7417 334.8193,156.8429 C339.1842,150.7365 343.0934,151.0085 347.6132,156.6746 C351.2979,149.6327 357.955,149.3318 362.0425,156.2585 C365.2976,150.4983 369.1366,149.4193 373.9725,154.5224 C378.8155,148.7605 384.8541,149.791 387.9379,156.4933 C391.8241,152.3256 395.496,151.1477 398.7209,157.1916 C402.8735,150.0297 408.8389,151.4385 412.6318,157.5681 C417.4616,151.1306 422.0048,151.8195 425.2513,159.0319 C429.8929,153.6356 434.5755,154.0169 437.6021,160.6852 C446.2983,164.4773 446.5275,169.8214 439.9975,175.9957 C447.2926,180.0902 446.3916,187.0154 439.9048,191.025 C446.4365,196.7168 446.5268,201.8095 439.2287,206.9128 C446.9226,212.1781 444.3581,219.1334 437.1498,222.3982 C434.123,229.1628 428.5973,229.1863 424.9208,223.0123 C420.85,228.2974 415.2221,227.5286 412.3528,221.6586 C409.3186,227.891 404.4162,228.4093 400.3127,222.7404 C395.4189,230.2408 390.4757,229.4362 386.0145,222.3173 C383.9407,228.6941 378.7521,230.0743 374.3514,224.6091 C369.5858,230.1083 364.5263,230.2816 361.422,222.9367 C357.0632,229.7863 352.6756,229.2837 348.3179,222.9355 C344.9325,229.2371 339.6032,228.4152 335.8749,223.3096 C330.4188,230.38 325.424,227.635 321.8191,221.3599 C318.3349,227.6179 314.3215,227.116 310.2916,221.9085 C301.6363,218.3338 299.7335,212.233 307.2772,205.6542 C299.6264,201.6862 298.7812,195.9872 305.3302,190.2271 C298.9058,184.988 300.4238,179.327 307.4669,176.1292 C300.0849,170.5405 302.0364,163.4374 310.5727,161.149 " fill="#FFFFFF" filter="url(#f1nn67vzz8opij)" style="stroke: #000000; stroke-width: 1.5;"/><!--MD5=[a8e31809c94bd3920922c17a126bb0b3]
cluster MySql--><path d="M279,263 C279,253 373.5,253 373.5,253 C373.5,253 468,253 468,263 L468,543 C468,553 373.5,553 373.5,553 C373.5,553 279,553 279,543 L279,263 " fill="#FFFFFF" filter="url(#f1nn67vzz8opij)" style="stroke: #000000; stroke-width: 1.5;"/><path d="M279,263 C279,273 373.5,273 373.5,273 C373.5,273 468,273 468,263 " fill="none" style="stroke: #000000; stroke-width: 1.5;"/><text fill="#000000" font-family="sans-serif" font-size="14" font-weight="bold" lengthAdjust="spacingAndGlyphs" textLength="43" x="352" y="288.5352">MySql</text><!--MD5=[57a7dd60b0970f41fd8892a58576fbc8]
cluster This is my folder--><polygon fill="#FFFFFF" filter="url(#f1nn67vzz8opij)" points="303,311,434,311,441,333.4883,444,333.4883,444,408,303,408,303,311" style="stroke: #000000; stroke-width: 1.5;"/><line style="stroke: #000000; stroke-width: 1.5;" x1="303" x2="441" y1="333.4883" y2="333.4883"/><text fill="#000000" font-family="sans-serif" font-size="14" font-weight="bold" lengthAdjust="spacingAndGlyphs" textLength="125" x="307" y="326.5352">This is my folder</text><!--MD5=[b098bf3b49ab5940c6091a421f0675e2]
cluster Foo--><rect fill="#FFFFFF" filter="url(#f1nn67vzz8opij)" height="97" style="stroke: #000000; stroke-width: 1.5;" width="128" x="309" y="432"/><path d="M345,432 L345,441.4883 L335,451.4883 L309,451.4883 " fill="none" style="stroke: #000000; stroke-width: 1.5;"/><text fill="#000000" font-family="sans-serif" font-size="14" font-weight="bold" lengthAdjust="spacingAndGlyphs" textLength="26" x="312" y="446.5352">Foo</text><!--MD5=[96f7e1299d4a43069e6ed32352fcac20]
entity HTTP--><ellipse cx="233" cy="64" fill="#FEFECE" filter="url(#f1nn67vzz8opij)" rx="8" ry="8" style="stroke: #A80036; stroke-width: 1.5;"/><text fill="#000000" font-family="sans-serif" font-size="14" lengthAdjust="spacingAndGlyphs" textLength="36" x="215" y="94.5352">HTTP</text><!--MD5=[cbd7cda55f2530e2efe43ec72c097853]
entity First Component--><rect fill="#FEFECE" filter="url(#f1nn67vzz8opij)" height="46.4883" style="stroke: #A80036; stroke-width: 1.5;" width="155" x="33.5" y="41"/><rect fill="#FEFECE" height="10" style="stroke: #A80036; stroke-width: 1.5;" width="15" x="168.5" y="46"/><rect fill="#FEFECE" height="2" style="stroke: #A80036; stroke-width: 1.5;" width="4" x="166.5" y="48"/><rect fill="#FEFECE" height="2" style="stroke: #A80036; stroke-width: 1.5;" width="4" x="166.5" y="52"/><text fill="#000000" font-family="sans-serif" font-size="14" lengthAdjust="spacingAndGlyphs" textLength="115" x="48.5" y="74.5352">First Component</text><!--MD5=[b9d11f23832c1491231c5b33e55ab8c6]
entity Another Component--><rect fill="#FEFECE" filter="url(#f1nn67vzz8opij)" height="46.4883" style="stroke: #A80036; stroke-width: 1.5;" width="181" x="277.5" y="41"/><rect fill="#FEFECE" height="10" style="stroke: #A80036; stroke-width: 1.5;" width="15" x="438.5" y="46"/><rect fill="#FEFECE" height="2" style="stroke: #A80036; stroke-width: 1.5;" width="4" x="436.5" y="48"/><rect fill="#FEFECE" height="2" style="stroke: #A80036; stroke-width: 1.5;" width="4" x="436.5" y="52"/><text fill="#000000" font-family="sans-serif" font-size="14" lengthAdjust="spacingAndGlyphs" textLength="141" x="292.5" y="74.5352">Another Component</text><!--MD5=[76af18d92d7d7c0f7ebd8f4f605ac5aa]
entity FTP--><ellipse cx="41" cy="190" fill="#FEFECE" filter="url(#f1nn67vzz8opij)" rx="8" ry="8" style="stroke: #A80036; stroke-width: 1.5;"/><text fill="#000000" font-family="sans-serif" font-size="14" lengthAdjust="spacingAndGlyphs" textLength="25" x="28.5" y="220.5352">FTP</text><!--MD5=[0e2cc1aee2c7f52697e111b4fb84546c]
entity Second Component--><rect fill="#FEFECE" filter="url(#f1nn67vzz8opij)" height="46.4883" style="stroke: #A80036; stroke-width: 1.5;" width="175" x="85.5" y="167"/><rect fill="#FEFECE" height="10" style="stroke: #A80036; stroke-width: 1.5;" width="15" x="240.5" y="172"/><rect fill="#FEFECE" height="2" style="stroke: #A80036; stroke-width: 1.5;" width="4" x="238.5" y="174"/><rect fill="#FEFECE" height="2" style="stroke: #A80036; stroke-width: 1.5;" width="4" x="238.5" y="178"/><text fill="#000000" font-family="sans-serif" font-size="14" lengthAdjust="spacingAndGlyphs" textLength="135" x="100.5" y="200.5352">Second Component</text><!--MD5=[243c1e580c31013c48b02624e18b25a7]
entity Example 1--><rect fill="#FEFECE" filter="url(#f1nn67vzz8opij)" height="46.4883" style="stroke: #A80036; stroke-width: 1.5;" width="112" x="317" y="167"/><rect fill="#FEFECE" height="10" style="stroke: #A80036; stroke-width: 1.5;" width="15" x="409" y="172"/><rect fill="#FEFECE" height="2" style="stroke: #A80036; stroke-width: 1.5;" width="4" x="407" y="174"/><rect fill="#FEFECE" height="2" style="stroke: #A80036; stroke-width: 1.5;" width="4" x="407" y="178"/><text fill="#000000" font-family="sans-serif" font-size="14" lengthAdjust="spacingAndGlyphs" textLength="72" x="332" y="200.5352">Example 1</text><!--MD5=[3e0e08c92570480402984701ab5a6d2d]
entity Folder 3--><rect fill="#FEFECE" filter="url(#f1nn67vzz8opij)" height="46.4883" style="stroke: #A80036; stroke-width: 1.5;" width="97" x="324.5" y="346"/><rect fill="#FEFECE" height="10" style="stroke: #A80036; stroke-width: 1.5;" width="15" x="401.5" y="351"/><rect fill="#FEFECE" height="2" style="stroke: #A80036; stroke-width: 1.5;" width="4" x="399.5" y="353"/><rect fill="#FEFECE" height="2" style="stroke: #A80036; stroke-width: 1.5;" width="4" x="399.5" y="357"/><text fill="#000000" font-family="sans-serif" font-size="14" lengthAdjust="spacingAndGlyphs" textLength="57" x="339.5" y="379.5352">Folder 3</text><!--MD5=[63877ed85df621d134a6c80fb52dad56]
entity Frame 4--><rect fill="#FEFECE" filter="url(#f1nn67vzz8opij)" height="46.4883" style="stroke: #A80036; stroke-width: 1.5;" width="96" x="325" y="467"/><rect fill="#FEFECE" height="10" style="stroke: #A80036; stroke-width: 1.5;" width="15" x="401" y="472"/><rect fill="#FEFECE" height="2" style="stroke: #A80036; stroke-width: 1.5;" width="4" x="399" y="474"/><rect fill="#FEFECE" height="2" style="stroke: #A80036; stroke-width: 1.5;" width="4" x="399" y="478"/><text fill="#000000" font-family="sans-serif" font-size="14" lengthAdjust="spacingAndGlyphs" textLength="56" x="340" y="500.5352">Frame 4</text><!--MD5=[46d996859f59e5baf77956ce93023cee]
link HTTP to First Component--><path d="M224,64 C212.22,64 200.45,64 188.68,64 " fill="none" id="HTTP-First Component" style="stroke: #A80036; stroke-width: 1.0;"/><!--MD5=[1966a42bb49d59057147dbda06282f4b]
link FTP to Second Component--><path d="M50.02,190 C61.71,190 73.4,190 85.09,190 " fill="none" id="FTP-Second Component" style="stroke: #A80036; stroke-width: 1.0;"/><!--MD5=[d3aefbd8005e27b21e7ce98ddd948193]
link First Component to FTP--><path d="M90.95,87.02 C83.09,96.4 74.43,107.77 68,119 C57.27,137.72 49.12,161.53 44.71,175.99 " fill="none" id="First Component-to-FTP" style="stroke: #A80036; stroke-width: 1.0;"/><polygon fill="#A80036" points="43.25,180.88,49.6511,173.3949,44.6763,176.0877,41.9835,171.1129,43.25,180.88" style="stroke: #A80036; stroke-width: 1.0;"/><!--MD5=[efc1ffe8b578a0fb156c7bce303319bb]
link Another Component to Example 1--><path d="M368.89,87.17 C369.73,107.93 370.99,139.04 371.89,161.4 " fill="none" id="Another Component-to-Example 1" style="stroke: #A80036; stroke-width: 1.0;"/><polygon fill="#A80036" points="372.1,166.61,375.736,157.4569,371.8996,161.614,367.7425,157.7776,372.1,166.61" style="stroke: #A80036; stroke-width: 1.0;"/><!--MD5=[7ec8393a78a133520e8846dd05a7857a]
link Example 1 to Folder 3--><path d="M373,213.06 C373,245.34 373,305.42 373,340.53 " fill="none" id="Example 1-to-Folder 3" style="stroke: #A80036; stroke-width: 1.0;"/><polygon fill="#A80036" points="373,345.94,377,336.94,373,340.94,369,336.94,373,345.94" style="stroke: #A80036; stroke-width: 1.0;"/><!--MD5=[b96c7096199393c1414a8b4e9ed2c30f]
link Folder 3 to Frame 4--><path d="M373,392.1 C373,411.68 373,440.35 373,461.43 " fill="none" id="Folder 3-to-Frame 4" style="stroke: #A80036; stroke-width: 1.0;"/><polygon fill="#A80036" points="373,466.61,377,457.61,373,461.61,369,457.61,373,466.61" style="stroke: #A80036; stroke-width: 1.0;"/><!--MD5=[6f61206027f65bc89787e64f229a1c31]
@startuml

package "Some Group" {
  HTTP - [First Component]
  [Another Component]
}
 
node "Other Groups" {
  FTP - [Second Component]
  [First Component] - -> FTP
} 

cloud {
  [Example 1]
}


database "MySql" {
  folder "This is my folder" {
    [Folder 3]
  }
  frame "Foo" {
    [Frame 4]
  }
}


[Another Component] - -> [Example 1]
[Example 1] - -> [Folder 3]
[Folder 3] - -> [Frame 4]

@enduml

PlantUML version 1.2020.19(Mon Oct 12 23:10:01 CST 2020)
(GPL source distribution)
Java Runtime: Java(TM) SE Runtime Environment
JVM: Java HotSpot(TM) 64-Bit Server VM
Default Encoding: UTF-8
Language: zh
Country: CN
--></g></svg>