<?xml version="1.0" encoding="UTF-8" standalone="no"?><svg xmlns="http://www.w3.org/2000/svg" xmlns:xlink="http://www.w3.org/1999/xlink" contentScriptType="application/ecmascript" contentStyleType="text/css" height="220px" preserveAspectRatio="none" style="width:399px;height:220px;" version="1.1" viewBox="0 0 399 220" width="399px" zoomAndPan="magnify"><defs><filter height="300%" id="f1xmaxzqnw81hu" width="300%" x="-1" y="-1"><feGaussianBlur result="blurOut" stdDeviation="2.0"/><feColorMatrix in="blurOut" result="blurOut2" type="matrix" values="0 0 0 0 0 0 0 0 0 0 0 0 0 0 0 0 0 0 .4 0"/><feOffset dx="4.0" dy="4.0" in="blurOut2" result="blurOut3"/><feBlend in="SourceGraphic" in2="blurOut3" mode="normal"/></filter></defs><g><!--MD5=[728d23d58e22fa55ea5a0544ed140874]
cluster net.dummy--><polygon fill="#DDDDDD" filter="url(#f1xmaxzqnw81hu)" points="16,6,102,6,109,28.4883,126,28.4883,126,213,16,213,16,6" style="stroke: #000000; stroke-width: 1.5;"/><line style="stroke: #000000; stroke-width: 1.5;" x1="16" x2="109" y1="28.4883" y2="28.4883"/><text fill="#000000" font-family="sans-serif" font-size="14" font-weight="bold" lengthAdjust="spacingAndGlyphs" textLength="80" x="20" y="21.5352">net.dummy</text><!--MD5=[33e59a955278c32565a5bf6f302dc15e]
cluster net.foo--><polygon fill="#FFFFFF" filter="url(#f1xmaxzqnw81hu)" points="150,114,206,114,213,136.4883,254,136.4883,254,213,150,213,150,114" style="stroke: #000000; stroke-width: 1.5;"/><line style="stroke: #000000; stroke-width: 1.5;" x1="150" x2="213" y1="136.4883" y2="136.4883"/><text fill="#000000" font-family="sans-serif" font-size="14" font-weight="bold" lengthAdjust="spacingAndGlyphs" textLength="50" x="154" y="129.5352">net.foo</text><!--MD5=[a192a6f29c441cea5ef200ac5f138a29]
cluster net.unused--><polygon fill="#FFFFFF" filter="url(#f1xmaxzqnw81hu)" points="278,114,362,114,369,136.4883,382,136.4883,382,213,278,213,278,114" style="stroke: #000000; stroke-width: 1.5;"/><line style="stroke: #000000; stroke-width: 1.5;" x1="278" x2="369" y1="136.4883" y2="136.4883"/><text fill="#000000" font-family="sans-serif" font-size="14" font-weight="bold" lengthAdjust="spacingAndGlyphs" textLength="78" x="282" y="129.5352">net.unused</text><!--MD5=[cb3a15f9f15e1ea33d1c370015e332c8]
class net.dummy.Person--><rect fill="#FEFECE" filter="url(#f1xmaxzqnw81hu)" height="48" id="net.dummy.Person" style="stroke: #A80036; stroke-width: 1.5;" width="71" x="38.5" y="149"/><ellipse cx="53.5" cy="165" fill="#ADD1B2" rx="11" ry="11" style="stroke: #A80036; stroke-width: 1.0;"/><path d="M55.9731,171.1431 Q55.3921,171.4419 54.7529,171.5913 Q54.1138,171.7407 53.4082,171.7407 Q50.9014,171.7407 49.5815,170.0889 Q48.2617,168.437 48.2617,165.3159 Q48.2617,162.1865 49.5815,160.5347 Q50.9014,158.8828 53.4082,158.8828 Q54.1138,158.8828 54.7612,159.0322 Q55.4087,159.1816 55.9731,159.4805 L55.9731,162.2031 Q55.3423,161.6221 54.7488,161.3523 Q54.1553,161.0825 53.5244,161.0825 Q52.1797,161.0825 51.4949,162.1492 Q50.8101,163.2158 50.8101,165.3159 Q50.8101,167.4077 51.4949,168.4744 Q52.1797,169.541 53.5244,169.541 Q54.1553,169.541 54.7488,169.2712 Q55.3423,169.0015 55.9731,168.4204 Z "/><text fill="#000000" font-family="sans-serif" font-size="12" lengthAdjust="spacingAndGlyphs" textLength="39" x="67.5" y="169.5352">Person</text><line style="stroke: #A80036; stroke-width: 1.5;" x1="39.5" x2="108.5" y1="181" y2="181"/><line style="stroke: #A80036; stroke-width: 1.5;" x1="39.5" x2="108.5" y1="189" y2="189"/><!--MD5=[8ac4e197c3b047d8b0ccbf03414837ae]
class net.dummy.Meeting--><rect fill="#FEFECE" filter="url(#f1xmaxzqnw81hu)" height="48" id="net.dummy.Meeting" style="stroke: #A80036; stroke-width: 1.5;" width="77" x="32.5" y="41"/><ellipse cx="47.5" cy="57" fill="#ADD1B2" rx="11" ry="11" style="stroke: #A80036; stroke-width: 1.0;"/><path d="M49.9731,63.1431 Q49.3921,63.4419 48.7529,63.5913 Q48.1138,63.7407 47.4082,63.7407 Q44.9014,63.7407 43.5815,62.0889 Q42.2617,60.437 42.2617,57.3159 Q42.2617,54.1865 43.5815,52.5347 Q44.9014,50.8828 47.4082,50.8828 Q48.1138,50.8828 48.7612,51.0322 Q49.4087,51.1816 49.9731,51.4805 L49.9731,54.2031 Q49.3423,53.6221 48.7488,53.3523 Q48.1553,53.0825 47.5244,53.0825 Q46.1797,53.0825 45.4949,54.1492 Q44.8101,55.2158 44.8101,57.3159 Q44.8101,59.4077 45.4949,60.4744 Q46.1797,61.541 47.5244,61.541 Q48.1553,61.541 48.7488,61.2712 Q49.3423,61.0015 49.9731,60.4204 Z "/><text fill="#000000" font-family="sans-serif" font-size="12" lengthAdjust="spacingAndGlyphs" textLength="45" x="61.5" y="61.5352">Meeting</text><line style="stroke: #A80036; stroke-width: 1.5;" x1="33.5" x2="108.5" y1="73" y2="73"/><line style="stroke: #A80036; stroke-width: 1.5;" x1="33.5" x2="108.5" y1="81" y2="81"/><!--MD5=[39b7869a7bbdf1e166c12fc90d8f21cb]
class net.foo.Person--><rect fill="#FEFECE" filter="url(#f1xmaxzqnw81hu)" height="48" id="net.foo.Person" style="stroke: #A80036; stroke-width: 1.5;" width="71" x="166.5" y="149"/><ellipse cx="181.5" cy="165" fill="#ADD1B2" rx="11" ry="11" style="stroke: #A80036; stroke-width: 1.0;"/><path d="M183.9731,171.1431 Q183.3921,171.4419 182.7529,171.5913 Q182.1138,171.7407 181.4082,171.7407 Q178.9014,171.7407 177.5815,170.0889 Q176.2617,168.437 176.2617,165.3159 Q176.2617,162.1865 177.5815,160.5347 Q178.9014,158.8828 181.4082,158.8828 Q182.1138,158.8828 182.7612,159.0322 Q183.4087,159.1816 183.9731,159.4805 L183.9731,162.2031 Q183.3423,161.6221 182.7488,161.3523 Q182.1553,161.0825 181.5244,161.0825 Q180.1797,161.0825 179.4949,162.1492 Q178.8101,163.2158 178.8101,165.3159 Q178.8101,167.4077 179.4949,168.4744 Q180.1797,169.541 181.5244,169.541 Q182.1553,169.541 182.7488,169.2712 Q183.3423,169.0015 183.9731,168.4204 Z "/><text fill="#000000" font-family="sans-serif" font-size="12" lengthAdjust="spacingAndGlyphs" textLength="39" x="195.5" y="169.5352">Person</text><line style="stroke: #A80036; stroke-width: 1.5;" x1="167.5" x2="236.5" y1="181" y2="181"/><line style="stroke: #A80036; stroke-width: 1.5;" x1="167.5" x2="236.5" y1="189" y2="189"/><!--MD5=[5f30d223f747d8ac33b5eb84f5743c2a]
class net.unused.Person--><rect fill="#FEFECE" filter="url(#f1xmaxzqnw81hu)" height="48" id="net.unused.Person" style="stroke: #A80036; stroke-width: 1.5;" width="71" x="294.5" y="149"/><ellipse cx="309.5" cy="165" fill="#ADD1B2" rx="11" ry="11" style="stroke: #A80036; stroke-width: 1.0;"/><path d="M311.9731,171.1431 Q311.3921,171.4419 310.7529,171.5913 Q310.1138,171.7407 309.4082,171.7407 Q306.9014,171.7407 305.5815,170.0889 Q304.2617,168.437 304.2617,165.3159 Q304.2617,162.1865 305.5815,160.5347 Q306.9014,158.8828 309.4082,158.8828 Q310.1138,158.8828 310.7612,159.0322 Q311.4087,159.1816 311.9731,159.4805 L311.9731,162.2031 Q311.3423,161.6221 310.7488,161.3523 Q310.1553,161.0825 309.5244,161.0825 Q308.1797,161.0825 307.4949,162.1492 Q306.8101,163.2158 306.8101,165.3159 Q306.8101,167.4077 307.4949,168.4744 Q308.1797,169.541 309.5244,169.541 Q310.1553,169.541 310.7488,169.2712 Q311.3423,169.0015 311.9731,168.4204 Z "/><text fill="#000000" font-family="sans-serif" font-size="12" lengthAdjust="spacingAndGlyphs" textLength="39" x="323.5" y="169.5352">Person</text><line style="stroke: #A80036; stroke-width: 1.5;" x1="295.5" x2="364.5" y1="181" y2="181"/><line style="stroke: #A80036; stroke-width: 1.5;" x1="295.5" x2="364.5" y1="189" y2="189"/><!--MD5=[8e57f1f895cc705ad5645d1ac73dc0a2]
class BaseClass--><rect codeLine="7" fill="#FEFECE" filter="url(#f1xmaxzqnw81hu)" height="48" id="BaseClass" style="stroke: #A80036; stroke-width: 1.5;" width="89" x="150.5" y="41"/><ellipse cx="165.5" cy="57" fill="#ADD1B2" rx="11" ry="11" style="stroke: #A80036; stroke-width: 1.0;"/><path d="M167.9731,63.1431 Q167.3921,63.4419 166.7529,63.5913 Q166.1138,63.7407 165.4082,63.7407 Q162.9014,63.7407 161.5815,62.0889 Q160.2617,60.437 160.2617,57.3159 Q160.2617,54.1865 161.5815,52.5347 Q162.9014,50.8828 165.4082,50.8828 Q166.1138,50.8828 166.7612,51.0322 Q167.4087,51.1816 167.9731,51.4805 L167.9731,54.2031 Q167.3423,53.6221 166.7488,53.3523 Q166.1553,53.0825 165.5244,53.0825 Q164.1797,53.0825 163.4949,54.1492 Q162.8101,55.2158 162.8101,57.3159 Q162.8101,59.4077 163.4949,60.4744 Q164.1797,61.541 165.5244,61.541 Q166.1553,61.541 166.7488,61.2712 Q167.3423,61.0015 167.9731,60.4204 Z "/><text fill="#000000" font-family="sans-serif" font-size="12" lengthAdjust="spacingAndGlyphs" textLength="57" x="179.5" y="61.5352">BaseClass</text><line style="stroke: #A80036; stroke-width: 1.5;" x1="151.5" x2="238.5" y1="73" y2="73"/><line style="stroke: #A80036; stroke-width: 1.5;" x1="151.5" x2="238.5" y1="81" y2="81"/><!--MD5=[38d283ab138c7dee77115f9fbc859330]
reverse link BaseClass to net.dummy.Person--><path codeLine="10" d="M153.52,102.34 C136.01,117.68 116.12,135.1 100.62,148.68 " fill="none" id="BaseClass-backto-net.dummy.Person" style="stroke: #A80036; stroke-width: 1.0;"/><polygon fill="none" points="149.09,96.91,168.74,89,158.31,107.44,149.09,96.91" style="stroke: #A80036; stroke-width: 1.0;"/><!--MD5=[3aad075c01a5f1f4921d0fd2481fc4e0]
reverse link net.dummy.Meeting to net.dummy.Person--><path codeLine="11" d="M72.03,102.34 C72.46,117.68 72.96,135.1 73.34,148.68 " fill="none" id="net.dummy.Meeting-backto-net.dummy.Person" style="stroke: #A80036; stroke-width: 1.0;"/><polygon fill="#FFFFFF" points="71.65,89,67.8163,95.1076,71.9795,100.9955,75.8133,94.8879,71.65,89" style="stroke: #A80036; stroke-width: 1.0;"/><!--MD5=[5b94dd299fdb64f5042d8ccdd246a8aa]
reverse link BaseClass to net.dummy.Meeting--><path codeLine="13" d="M130.06,65 C123.29,65 116.52,65 109.75,65 " fill="none" id="BaseClass-backto-net.dummy.Meeting" style="stroke: #A80036; stroke-width: 1.0;"/><polygon fill="none" points="130.38,58,150.38,65,130.38,72,130.38,58" style="stroke: #A80036; stroke-width: 1.0;"/><!--MD5=[b57b6e1cdce0b532ba1371e9c7d07ce1]
reverse link net.dummy.Person to net.foo.Person--><path codeLine="18" d="M130.28,173 C142.33,173 154.37,173 166.42,173 " fill="none" id="net.dummy.Person-backto-net.foo.Person" style="stroke: #A80036; stroke-width: 1.0;"/><polygon fill="none" points="130,180,110,173,130,166,130,180" style="stroke: #A80036; stroke-width: 1.0;"/><!--MD5=[3949315fc233572465e48cd9e3f6e864]
reverse link BaseClass to net.foo.Person--><path codeLine="19" d="M197.84,109.02 C198.74,122.58 199.69,137.04 200.46,148.68 " fill="none" id="BaseClass-backto-net.foo.Person" style="stroke: #A80036; stroke-width: 1.0;"/><polygon fill="none" points="190.85,109.42,196.52,89,204.82,108.5,190.85,109.42" style="stroke: #A80036; stroke-width: 1.0;"/><!--MD5=[736f19012fcb2f75c0b04526aeb93c2d]
reverse link net.dummy.Meeting to net.foo.Person--><path codeLine="21" d="M114.23,96.9 C118.24,99.93 122.22,102.99 126,106 C143.23,119.71 161.91,135.91 176.44,148.83 " fill="none" id="net.dummy.Meeting-backto-net.foo.Person" style="stroke: #A80036; stroke-width: 1.0;"/><polygon fill="#FFFFFF" points="103.63,89.02,106.0569,95.8105,113.2584,96.182,110.8315,89.3915,103.63,89.02" style="stroke: #A80036; stroke-width: 1.0;"/><!--MD5=[20bb99b6116bfc237a0342da45d84df8]
reverse link BaseClass to net.unused.Person--><path codeLine="24" d="M246.82,100.61 C249.26,102.41 251.67,104.21 254,106 C271.59,119.53 290.44,135.88 304.96,148.92 " fill="none" id="BaseClass-backto-net.unused.Person" style="stroke: #A80036; stroke-width: 1.0;"/><polygon fill="none" points="242.71,106.28,230.43,89.01,250.8,94.85,242.71,106.28" style="stroke: #A80036; stroke-width: 1.0;"/><!--MD5=[83f978c1e3e3ffcb8567dfef24579051]
@startuml
' Split into 4 pages
page 2x2
skinparam pageMargin 10
skinparam pageExternalColor gray
skinparam pageBorderColor black

class BaseClass

namespace net.dummy #DDDDDD {
    .BaseClass <|- - Person
    Meeting o- - Person
    
    .BaseClass <|- Meeting

}

namespace net.foo {
  net.dummy.Person  <|- Person
  .BaseClass <|- - Person

  net.dummy.Meeting o- - Person
}

BaseClass <|- - net.unused.Person
@enduml

@startuml
page 2x2
skinparam pageMargin 10
skinparam pageExternalColor gray
skinparam pageBorderColor black

class BaseClass

namespace net.dummy #DDDDDD {
    .BaseClass <|- - Person
    Meeting o- - Person
    
    .BaseClass <|- Meeting

}

namespace net.foo {
  net.dummy.Person  <|- Person
  .BaseClass <|- - Person

  net.dummy.Meeting o- - Person
}

BaseClass <|- - net.unused.Person
@enduml

PlantUML version 1.2020.19(Mon Oct 12 23:10:01 CST 2020)
(GPL source distribution)
Java Runtime: Java(TM) SE Runtime Environment
JVM: Java HotSpot(TM) 64-Bit Server VM
Default Encoding: UTF-8
Language: zh
Country: CN
--></g></svg>