<?xml version="1.0" encoding="UTF-8" standalone="no"?><svg xmlns="http://www.w3.org/2000/svg" xmlns:xlink="http://www.w3.org/1999/xlink" contentScriptType="application/ecmascript" contentStyleType="text/css" height="648px" preserveAspectRatio="none" style="width:335px;height:648px;" version="1.1" viewBox="0 0 335 648" width="335px" zoomAndPan="magnify"><defs><filter height="300%" id="f1lclnam9p1t0w" width="300%" x="-1" y="-1"><feGaussianBlur result="blurOut" stdDeviation="2.0"/><feColorMatrix in="blurOut" result="blurOut2" type="matrix" values="0 0 0 0 0 0 0 0 0 0 0 0 0 0 0 0 0 0 .4 0"/><feOffset dx="4.0" dy="4.0" in="blurOut2" result="blurOut3"/><feBlend in="SourceGraphic" in2="blurOut3" mode="normal"/></filter></defs><g><ellipse cx="164.5" cy="18" fill="#000000" filter="url(#f1lclnam9p1t0w)" rx="10" ry="10" style="stroke: none; stroke-width: 1.0;"/><rect fill="#FEFECE" filter="url(#f1lclnam9p1t0w)" height="549.4883" rx="12.5" ry="12.5" style="stroke: #A80036; stroke-width: 1.5;" width="317" x="6" y="88"/><rect fill="#FFFFFF" height="517" rx="12.5" ry="12.5" style="stroke: #FFFFFF; stroke-width: 1.0;" width="311" x="9" y="117.4883"/><line style="stroke: #A80036; stroke-width: 1.5;" x1="6" x2="323" y1="114.4883" y2="114.4883"/><text fill="#000000" font-family="sans-serif" font-size="14" lengthAdjust="spacingAndGlyphs" textLength="41" x="144" y="106.5352">Active</text><ellipse cx="27" cy="152.4883" fill="#000000" filter="url(#f1lclnam9p1t0w)" rx="10" ry="10" style="stroke: none; stroke-width: 1.0;"/><g id="NumLockOff"><rect fill="#FEFECE" filter="url(#f1lclnam9p1t0w)" height="50" rx="12.5" ry="12.5" style="stroke: #A80036; stroke-width: 1.5;" width="104" x="55" y="127.4883"/><line style="stroke: #A80036; stroke-width: 1.5;" x1="55" x2="159" y1="153.9766" y2="153.9766"/><text fill="#000000" font-family="sans-serif" font-size="14" lengthAdjust="spacingAndGlyphs" textLength="84" x="65" y="146.0234">NumLockOff</text></g><g id="NumLockOn"><rect fill="#FEFECE" filter="url(#f1lclnam9p1t0w)" height="50" rx="12.5" ry="12.5" style="stroke: #A80036; stroke-width: 1.5;" width="103" x="54.5" y="230.4883"/><line style="stroke: #A80036; stroke-width: 1.5;" x1="54.5" x2="157.5" y1="256.9766" y2="256.9766"/><text fill="#000000" font-family="sans-serif" font-size="14" lengthAdjust="spacingAndGlyphs" textLength="83" x="64.5" y="249.0234">NumLockOn</text></g><!--MD5=[f1e44e9cdf7ed6fd162579f896fb76ea]
link *start*Active to NumLockOff--><path d="M37,152.4883 C41.17,152.4883 45.33,152.4883 49.5,152.4883 " fill="none" id="*start*Active-&gt;NumLockOff" style="stroke: #A80036; stroke-width: 1.0;"/><polygon fill="#A80036" points="54.77,152.4883,45.77,148.4883,49.77,152.4883,45.77,156.4883,54.77,152.4883" style="stroke: #A80036; stroke-width: 1.0;"/><!--MD5=[b6ef3c088f5474ecc81df30475e7d61b]
link NumLockOff to NumLockOn--><path d="M54.77,174.2483 C46.46,179.8883 38.98,186.8783 34,195.4883 C25.86,209.5583 35.24,221.6883 49.62,231.2183 " fill="none" id="NumLockOff-&gt;NumLockOn" style="stroke: #A80036; stroke-width: 1.0;"/><polygon fill="#A80036" points="54.23,234.0883,48.7057,225.9347,49.986,231.4447,44.4759,232.7251,54.23,234.0883" style="stroke: #A80036; stroke-width: 1.0;"/><text fill="#000000" font-family="sans-serif" font-size="13" lengthAdjust="spacingAndGlyphs" textLength="122" x="35" y="209.0566">EvNumLockPressed</text><!--MD5=[3bfddee0d82dc74c927fbeb3d3f2e6a3]
link NumLockOn to NumLockOff--><path d="M144.47,230.3583 C149.95,225.1683 154.8,219.1883 158,212.4883 C163.31,201.3683 158.4,190.6983 149.87,181.5683 " fill="none" id="NumLockOn-&gt;NumLockOff" style="stroke: #A80036; stroke-width: 1.0;"/><polygon fill="#A80036" points="146.01,177.7483,149.6012,186.9191,149.5669,181.2623,155.2236,181.228,146.01,177.7483" style="stroke: #A80036; stroke-width: 1.0;"/><text fill="#000000" font-family="sans-serif" font-size="13" lengthAdjust="spacingAndGlyphs" textLength="122" x="162" y="209.0566">EvNumLockPressed</text><line style="stroke: #A80036; stroke-width: 1.5; stroke-dasharray: 8.0,10.0;" x1="11" x2="316" y1="290.4883" y2="290.4883"/><ellipse cx="27" cy="323.4883" fill="#000000" filter="url(#f1lclnam9p1t0w)" rx="10" ry="10" style="stroke: none; stroke-width: 1.0;"/><g id="CapsLockOff"><rect fill="#FEFECE" filter="url(#f1lclnam9p1t0w)" height="50" rx="12.5" ry="12.5" style="stroke: #A80036; stroke-width: 1.5;" width="106" x="55" y="298.4883"/><line style="stroke: #A80036; stroke-width: 1.5;" x1="55" x2="161" y1="324.9766" y2="324.9766"/><text fill="#000000" font-family="sans-serif" font-size="14" lengthAdjust="spacingAndGlyphs" textLength="86" x="65" y="317.0234">CapsLockOff</text></g><g id="CapsLockOn"><rect fill="#FEFECE" filter="url(#f1lclnam9p1t0w)" height="50" rx="12.5" ry="12.5" style="stroke: #A80036; stroke-width: 1.5;" width="105" x="55.5" y="401.4883"/><line style="stroke: #A80036; stroke-width: 1.5;" x1="55.5" x2="160.5" y1="427.9766" y2="427.9766"/><text fill="#000000" font-family="sans-serif" font-size="14" lengthAdjust="spacingAndGlyphs" textLength="85" x="65.5" y="420.0234">CapsLockOn</text></g><!--MD5=[51e546a80ae6e98604e866a8b05eb61c]
link *start*CONC13 to CapsLockOff--><path d="M37.12,323.4883 C41.28,323.4883 45.43,323.4883 49.58,323.4883 " fill="none" id="*start*CONC13-&gt;CapsLockOff" style="stroke: #A80036; stroke-width: 1.0;"/><polygon fill="#A80036" points="54.84,323.4883,45.84,319.4883,49.84,323.4883,45.84,327.4883,54.84,323.4883" style="stroke: #A80036; stroke-width: 1.0;"/><!--MD5=[dc4675bd3056f3ef68701d9e8e02a3f3]
link CapsLockOff to CapsLockOn--><path d="M54.67,345.9983 C46.81,351.5083 39.76,358.2583 35,366.4883 C26.87,380.5483 36.14,392.6083 50.49,402.0883 " fill="none" id="CapsLockOff-&gt;CapsLockOn" style="stroke: #A80036; stroke-width: 1.0;"/><polygon fill="#A80036" points="55.09,404.9483,49.5534,396.803,50.842,402.3111,45.3339,403.5998,55.09,404.9483" style="stroke: #A80036; stroke-width: 1.0;"/><text fill="#000000" font-family="sans-serif" font-size="13" lengthAdjust="spacingAndGlyphs" textLength="123" x="36" y="380.0566">EvCapsLockPressed</text><!--MD5=[79e17b083e07746bd1a647600952cab6]
link CapsLockOn to CapsLockOff--><path d="M147.7,401.3383 C158.69,391.4383 166.12,379.2983 160,366.4883 C157.55,361.3583 154.13,356.6483 150.21,352.3983 " fill="none" id="CapsLockOn-&gt;CapsLockOff" style="stroke: #A80036; stroke-width: 1.0;"/><polygon fill="#A80036" points="146.47,348.6183,149.9498,357.8319,149.984,352.1752,155.6408,352.2095,146.47,348.6183" style="stroke: #A80036; stroke-width: 1.0;"/><text fill="#000000" font-family="sans-serif" font-size="13" lengthAdjust="spacingAndGlyphs" textLength="123" x="164" y="380.0566">EvCapsLockPressed</text><line style="stroke: #A80036; stroke-width: 1.5; stroke-dasharray: 8.0,10.0;" x1="11" x2="316" y1="461.4883" y2="461.4883"/><ellipse cx="27" cy="494.4883" fill="#000000" filter="url(#f1lclnam9p1t0w)" rx="10" ry="10" style="stroke: none; stroke-width: 1.0;"/><g id="ScrollLockOff"><rect fill="#FEFECE" filter="url(#f1lclnam9p1t0w)" height="50" rx="12.5" ry="12.5" style="stroke: #A80036; stroke-width: 1.5;" width="110" x="55" y="469.4883"/><line style="stroke: #A80036; stroke-width: 1.5;" x1="55" x2="165" y1="495.9766" y2="495.9766"/><text fill="#000000" font-family="sans-serif" font-size="14" lengthAdjust="spacingAndGlyphs" textLength="90" x="65" y="488.0234">ScrollLockOff</text></g><g id="ScrollLockOn"><rect fill="#FEFECE" filter="url(#f1lclnam9p1t0w)" height="50" rx="12.5" ry="12.5" style="stroke: #A80036; stroke-width: 1.5;" width="109" x="55.5" y="572.4883"/><line style="stroke: #A80036; stroke-width: 1.5;" x1="55.5" x2="164.5" y1="598.9766" y2="598.9766"/><text fill="#000000" font-family="sans-serif" font-size="14" lengthAdjust="spacingAndGlyphs" textLength="89" x="65.5" y="591.0234">ScrollLockOn</text></g><!--MD5=[bdd02d731d6cd7a1604516ed0f976c9f]
link *start*CONC21 to ScrollLockOff--><path d="M37.05,494.4883 C41.19,494.4883 45.33,494.4883 49.47,494.4883 " fill="none" id="*start*CONC21-&gt;ScrollLockOff" style="stroke: #A80036; stroke-width: 1.0;"/><polygon fill="#A80036" points="54.72,494.4883,45.72,490.4883,49.72,494.4883,45.72,498.4883,54.72,494.4883" style="stroke: #A80036; stroke-width: 1.0;"/><!--MD5=[da4e1e55b4a6de250eca2c82023085fa]
link ScrollLockOff to ScrollLockOn--><path d="M54.83,517.3983 C39.18,527.0883 28.43,539.6783 37,554.4883 C40.63,560.7583 45.59,566.1783 51.23,570.8383 " fill="none" id="ScrollLockOff-&gt;ScrollLockOn" style="stroke: #A80036; stroke-width: 1.0;"/><polygon fill="#A80036" points="55.23,573.9483,50.5533,565.2806,51.2733,570.8915,45.6624,571.6114,55.23,573.9483" style="stroke: #A80036; stroke-width: 1.0;"/><text fill="#000000" font-family="sans-serif" font-size="13" lengthAdjust="spacingAndGlyphs" textLength="123" x="38" y="551.0566">EvCapsLockPressed</text><!--MD5=[6ad2c621f2407b82317910f4deb17639]
link ScrollLockOn to ScrollLockOff--><path d="M149.7,572.3383 C160.69,562.4383 168.12,550.2983 162,537.4883 C159.55,532.3583 156.13,527.6483 152.21,523.3983 " fill="none" id="ScrollLockOn-&gt;ScrollLockOff" style="stroke: #A80036; stroke-width: 1.0;"/><polygon fill="#A80036" points="148.47,519.6183,151.9498,528.8319,151.984,523.1752,157.6408,523.2095,148.47,519.6183" style="stroke: #A80036; stroke-width: 1.0;"/><text fill="#000000" font-family="sans-serif" font-size="13" lengthAdjust="spacingAndGlyphs" textLength="123" x="166" y="551.0566">EvCapsLockPressed</text><!--MD5=[edb54b3b19a9924369663c95443e5f29]
link *start to Active--><path d="M164.5,28.16 C164.5,38.89 164.5,58.32 164.5,82.6 " fill="none" id="*start-&gt;Active" style="stroke: #A80036; stroke-width: 1.0;"/><polygon fill="#A80036" points="164.5,87.86,168.5,78.86,164.5,82.86,160.5,78.86,164.5,87.86" style="stroke: #A80036; stroke-width: 1.0;"/><!--MD5=[ddc1f7bb5f6c954967c8d0e8b6872503]
@startuml
[*] - -> Active

state Active {
  [*] -> NumLockOff
  NumLockOff - -> NumLockOn : EvNumLockPressed
  NumLockOn - -> NumLockOff : EvNumLockPressed
  - -
  [*] -> CapsLockOff
  CapsLockOff - -> CapsLockOn : EvCapsLockPressed
  CapsLockOn - -> CapsLockOff : EvCapsLockPressed
  - -
  [*] -> ScrollLockOff
  ScrollLockOff - -> ScrollLockOn : EvCapsLockPressed
  ScrollLockOn - -> ScrollLockOff : EvCapsLockPressed
}

@enduml

PlantUML version 1.2020.10(Sun May 17 17:35:57 CST 2020)
(GPL source distribution)
Java Runtime: Java(TM) SE Runtime Environment
JVM: Java HotSpot(TM) 64-Bit Server VM
Java Version: 14.0.1+7
Operating System: Mac OS X
Default Encoding: UTF-8
Language: zh
Country: CN
--></g></svg>