<?xml version="1.0" encoding="UTF-8" standalone="no"?><svg xmlns="http://www.w3.org/2000/svg" xmlns:xlink="http://www.w3.org/1999/xlink" contentScriptType="application/ecmascript" contentStyleType="text/css" height="653px" preserveAspectRatio="none" style="width:312px;height:653px;" version="1.1" viewBox="0 0 312 653" width="312px" zoomAndPan="magnify"><defs><filter height="300%" id="f1lclnam9p1t0w" width="300%" x="-1" y="-1"><feGaussianBlur result="blurOut" stdDeviation="2.0"/><feColorMatrix in="blurOut" result="blurOut2" type="matrix" values="0 0 0 0 0 0 0 0 0 0 0 0 0 0 0 0 0 0 .4 0"/><feOffset dx="4.0" dy="4.0" in="blurOut2" result="blurOut3"/><feBlend in="SourceGraphic" in2="blurOut3" mode="normal"/></filter></defs><g><ellipse cx="153.5" cy="16" fill="#000000" filter="url(#f1lclnam9p1t0w)" rx="10" ry="10" style="stroke: none; stroke-width: 1.0;"/><rect fill="#FEFECE" filter="url(#f1lclnam9p1t0w)" height="555.4883" rx="12.5" ry="12.5" style="stroke: #A80036; stroke-width: 1.5;" width="293" x="7" y="86"/><rect fill="#FFFFFF" height="523" rx="12.5" ry="12.5" style="stroke: #FFFFFF; stroke-width: 1.0;" width="287" x="10" y="115.4883"/><line style="stroke: #A80036; stroke-width: 1.5;" x1="7" x2="300" y1="112.4883" y2="112.4883"/><text fill="#000000" font-family="sans-serif" font-size="14" lengthAdjust="spacingAndGlyphs" textLength="41" x="133" y="104.5352">Active</text><ellipse cx="28" cy="149.4883" fill="#000000" filter="url(#f1lclnam9p1t0w)" rx="10" ry="10" style="stroke: none; stroke-width: 1.0;"/><g id="Active.NumLockOff"><rect fill="#FEFECE" filter="url(#f1lclnam9p1t0w)" height="50" rx="12.5" ry="12.5" style="stroke: #A80036; stroke-width: 1.5;" width="104" x="56" y="124.4883"/><line style="stroke: #A80036; stroke-width: 1.5;" x1="56" x2="160" y1="150.9766" y2="150.9766"/><text fill="#000000" font-family="sans-serif" font-size="14" lengthAdjust="spacingAndGlyphs" textLength="84" x="66" y="143.0234">NumLockOff</text></g><g id="Active.NumLockOn"><rect fill="#FEFECE" filter="url(#f1lclnam9p1t0w)" height="50" rx="12.5" ry="12.5" style="stroke: #A80036; stroke-width: 1.5;" width="103" x="55.5" y="227.4883"/><line style="stroke: #A80036; stroke-width: 1.5;" x1="55.5" x2="158.5" y1="253.9766" y2="253.9766"/><text fill="#000000" font-family="sans-serif" font-size="14" lengthAdjust="spacingAndGlyphs" textLength="83" x="65.5" y="246.0234">NumLockOn</text></g><!--MD5=[f1e44e9cdf7ed6fd162579f896fb76ea]
link *start*Active to NumLockOff--><path d="M38,149.4883 C42.17,149.4883 46.33,149.4883 50.5,149.4883 " fill="none" id="*start*Active-to-NumLockOff" style="stroke: #A80036; stroke-width: 1.0;"/><polygon fill="#A80036" points="55.77,149.4883,46.77,145.4883,50.77,149.4883,46.77,153.4883,55.77,149.4883" style="stroke: #A80036; stroke-width: 1.0;"/><!--MD5=[b6ef3c088f5474ecc81df30475e7d61b]
link NumLockOff to NumLockOn--><path d="M55.77,171.2483 C47.46,176.8883 39.98,183.8783 35,192.4883 C26.86,206.5583 36.24,218.6883 50.62,228.2183 " fill="none" id="NumLockOff-to-NumLockOn" style="stroke: #A80036; stroke-width: 1.0;"/><polygon fill="#A80036" points="55.23,231.0883,49.7057,222.9347,50.986,228.4447,45.4759,229.7251,55.23,231.0883" style="stroke: #A80036; stroke-width: 1.0;"/><text fill="#000000" font-family="sans-serif" font-size="13" lengthAdjust="spacingAndGlyphs" textLength="122" x="36" y="206.0566">EvNumLockPressed</text><!--MD5=[3bfddee0d82dc74c927fbeb3d3f2e6a3]
link NumLockOn to NumLockOff--><path d="M145.47,227.3583 C150.95,222.1683 155.8,216.1883 159,209.4883 C164.31,198.3683 159.4,187.6983 150.87,178.5683 " fill="none" id="NumLockOn-to-NumLockOff" style="stroke: #A80036; stroke-width: 1.0;"/><polygon fill="#A80036" points="147.01,174.7483,150.6012,183.9191,150.5669,178.2623,156.2236,178.228,147.01,174.7483" style="stroke: #A80036; stroke-width: 1.0;"/><text fill="#000000" font-family="sans-serif" font-size="13" lengthAdjust="spacingAndGlyphs" textLength="122" x="163" y="206.0566">EvNumLockPressed</text><line style="stroke: #A80036; stroke-width: 1.5; stroke-dasharray: 8.0,10.0;" x1="12" x2="293" y1="290.4883" y2="290.4883"/><ellipse cx="28" cy="322.4883" fill="#000000" filter="url(#f1lclnam9p1t0w)" rx="10" ry="10" style="stroke: none; stroke-width: 1.0;"/><g id="Active.CONC13.CapsLockOff"><rect fill="#FEFECE" filter="url(#f1lclnam9p1t0w)" height="50" rx="12.5" ry="12.5" style="stroke: #A80036; stroke-width: 1.5;" width="106" x="56" y="297.4883"/><line style="stroke: #A80036; stroke-width: 1.5;" x1="56" x2="162" y1="323.9766" y2="323.9766"/><text fill="#000000" font-family="sans-serif" font-size="14" lengthAdjust="spacingAndGlyphs" textLength="86" x="66" y="316.0234">CapsLockOff</text></g><g id="Active.CONC13.CapsLockOn"><rect fill="#FEFECE" filter="url(#f1lclnam9p1t0w)" height="50" rx="12.5" ry="12.5" style="stroke: #A80036; stroke-width: 1.5;" width="105" x="56.5" y="400.4883"/><line style="stroke: #A80036; stroke-width: 1.5;" x1="56.5" x2="161.5" y1="426.9766" y2="426.9766"/><text fill="#000000" font-family="sans-serif" font-size="14" lengthAdjust="spacingAndGlyphs" textLength="85" x="66.5" y="419.0234">CapsLockOn</text></g><!--MD5=[51e546a80ae6e98604e866a8b05eb61c]
link *start*CONC13 to CapsLockOff--><path d="M38.12,322.4883 C42.28,322.4883 46.43,322.4883 50.58,322.4883 " fill="none" id="*start*CONC13-to-CapsLockOff" style="stroke: #A80036; stroke-width: 1.0;"/><polygon fill="#A80036" points="55.84,322.4883,46.84,318.4883,50.84,322.4883,46.84,326.4883,55.84,322.4883" style="stroke: #A80036; stroke-width: 1.0;"/><!--MD5=[dc4675bd3056f3ef68701d9e8e02a3f3]
link CapsLockOff to CapsLockOn--><path d="M55.67,344.9983 C47.81,350.5083 40.76,357.2583 36,365.4883 C27.87,379.5483 37.14,391.6083 51.49,401.0883 " fill="none" id="CapsLockOff-to-CapsLockOn" style="stroke: #A80036; stroke-width: 1.0;"/><polygon fill="#A80036" points="56.09,403.9483,50.5534,395.803,51.842,401.3111,46.3339,402.5998,56.09,403.9483" style="stroke: #A80036; stroke-width: 1.0;"/><text fill="#000000" font-family="sans-serif" font-size="13" lengthAdjust="spacingAndGlyphs" textLength="123" x="37" y="379.0566">EvCapsLockPressed</text><!--MD5=[79e17b083e07746bd1a647600952cab6]
link CapsLockOn to CapsLockOff--><path d="M148.7,400.3383 C159.69,390.4383 167.12,378.2983 161,365.4883 C158.55,360.3583 155.13,355.6483 151.21,351.3983 " fill="none" id="CapsLockOn-to-CapsLockOff" style="stroke: #A80036; stroke-width: 1.0;"/><polygon fill="#A80036" points="147.47,347.6183,150.9498,356.8319,150.984,351.1752,156.6408,351.2095,147.47,347.6183" style="stroke: #A80036; stroke-width: 1.0;"/><text fill="#000000" font-family="sans-serif" font-size="13" lengthAdjust="spacingAndGlyphs" textLength="123" x="165" y="379.0566">EvCapsLockPressed</text><line style="stroke: #A80036; stroke-width: 1.5; stroke-dasharray: 8.0,10.0;" x1="12" x2="293" y1="463.4883" y2="463.4883"/><ellipse cx="28" cy="495.4883" fill="#000000" filter="url(#f1lclnam9p1t0w)" rx="10" ry="10" style="stroke: none; stroke-width: 1.0;"/><g id="Active.CONC21.ScrollLockOff"><rect fill="#FEFECE" filter="url(#f1lclnam9p1t0w)" height="50" rx="12.5" ry="12.5" style="stroke: #A80036; stroke-width: 1.5;" width="110" x="56" y="470.4883"/><line style="stroke: #A80036; stroke-width: 1.5;" x1="56" x2="166" y1="496.9766" y2="496.9766"/><text fill="#000000" font-family="sans-serif" font-size="14" lengthAdjust="spacingAndGlyphs" textLength="90" x="66" y="489.0234">ScrollLockOff</text></g><g id="Active.CONC21.ScrollLockOn"><rect fill="#FEFECE" filter="url(#f1lclnam9p1t0w)" height="50" rx="12.5" ry="12.5" style="stroke: #A80036; stroke-width: 1.5;" width="109" x="56.5" y="573.4883"/><line style="stroke: #A80036; stroke-width: 1.5;" x1="56.5" x2="165.5" y1="599.9766" y2="599.9766"/><text fill="#000000" font-family="sans-serif" font-size="14" lengthAdjust="spacingAndGlyphs" textLength="89" x="66.5" y="592.0234">ScrollLockOn</text></g><!--MD5=[bdd02d731d6cd7a1604516ed0f976c9f]
link *start*CONC21 to ScrollLockOff--><path d="M38.05,495.4883 C42.19,495.4883 46.33,495.4883 50.47,495.4883 " fill="none" id="*start*CONC21-to-ScrollLockOff" style="stroke: #A80036; stroke-width: 1.0;"/><polygon fill="#A80036" points="55.72,495.4883,46.72,491.4883,50.72,495.4883,46.72,499.4883,55.72,495.4883" style="stroke: #A80036; stroke-width: 1.0;"/><!--MD5=[da4e1e55b4a6de250eca2c82023085fa]
link ScrollLockOff to ScrollLockOn--><path d="M55.83,518.3983 C40.18,528.0883 29.43,540.6783 38,555.4883 C41.63,561.7583 46.59,567.1783 52.23,571.8383 " fill="none" id="ScrollLockOff-to-ScrollLockOn" style="stroke: #A80036; stroke-width: 1.0;"/><polygon fill="#A80036" points="56.23,574.9483,51.5533,566.2806,52.2733,571.8915,46.6624,572.6114,56.23,574.9483" style="stroke: #A80036; stroke-width: 1.0;"/><text fill="#000000" font-family="sans-serif" font-size="13" lengthAdjust="spacingAndGlyphs" textLength="123" x="39" y="552.0566">EvCapsLockPressed</text><!--MD5=[6ad2c621f2407b82317910f4deb17639]
link ScrollLockOn to ScrollLockOff--><path d="M150.7,573.3383 C161.69,563.4383 169.12,551.2983 163,538.4883 C160.55,533.3583 157.13,528.6483 153.21,524.3983 " fill="none" id="ScrollLockOn-to-ScrollLockOff" style="stroke: #A80036; stroke-width: 1.0;"/><polygon fill="#A80036" points="149.47,520.6183,152.9498,529.8319,152.984,524.1752,158.6408,524.2095,149.47,520.6183" style="stroke: #A80036; stroke-width: 1.0;"/><text fill="#000000" font-family="sans-serif" font-size="13" lengthAdjust="spacingAndGlyphs" textLength="123" x="167" y="552.0566">EvCapsLockPressed</text><!--MD5=[edb54b3b19a9924369663c95443e5f29]
link *start to Active--><path d="M153.5,26.24 C153.5,36.96 153.5,56.3 153.5,80.48 " fill="none" id="*start-to-Active" style="stroke: #A80036; stroke-width: 1.0;"/><polygon fill="#A80036" points="153.5,85.71,157.5,76.71,153.5,80.71,149.5,76.71,153.5,85.71" style="stroke: #A80036; stroke-width: 1.0;"/><!--MD5=[ea6b6eeaff1ea903e8e1ed1ae604548a]
@startuml
[*] - -> Active

state Active {
  [*] -> NumLockOff
  NumLockOff - -> NumLockOn : EvNumLockPressed
  NumLockOn - -> NumLockOff : EvNumLockPressed
  - -
  [*] -> CapsLockOff
  CapsLockOff - -> CapsLockOn : EvCapsLockPressed
  CapsLockOn - -> CapsLockOff : EvCapsLockPressed
  - -
  [*] -> ScrollLockOff
  ScrollLockOff - -> ScrollLockOn : EvCapsLockPressed
  ScrollLockOn - -> ScrollLockOff : EvCapsLockPressed
}

@enduml

PlantUML version 1.2020.19(Mon Oct 12 23:10:01 CST 2020)
(GPL source distribution)
Java Runtime: Java(TM) SE Runtime Environment
JVM: Java HotSpot(TM) 64-Bit Server VM
Default Encoding: UTF-8
Language: zh
Country: CN
--></g></svg>